<svg width="54" height="52" viewBox="0 0 54 52" fill="none" xmlns="http://www.w3.org/2000/svg">
<path d="M33.1836 42.6445C37.6758 41.7982 40.8333 38.543 42.6562 32.8789C43.5677 30.0794 44.0234 27.3125 44.0234 24.5781C44.0234 24.2526 44.0234 23.9596 44.0234 23.6992C43.9583 23.5039 43.8932 23.0156 43.8281 22.2344H33.1836V0.945312H53.9844V20.5742C53.9844 30.2096 52.0638 37.6315 48.2227 42.8398C44.3815 48.0482 39.3685 51.043 33.1836 51.8242V42.6445ZM0.273438 42.6445C3.85417 42.0586 6.58854 40.0404 8.47656 36.5898C10.2995 33.1393 11.2109 29.168 11.2109 24.6758C11.2109 24.2852 11.2109 23.8945 11.2109 23.5039C11.1458 23.1133 11.0482 22.6901 10.918 22.2344H0.273438V0.945312H21.1719V20.5742C21.1719 28.3216 19.5443 35.2227 16.2891 41.2773C13.0339 47.3971 7.69531 50.9128 0.273438 51.8242V42.6445Z" fill="white" fill-opacity="0.3"/>
</svg>
