<svg width="85" height="130" viewBox="0 0 85 130" fill="none" xmlns="http://www.w3.org/2000/svg">
<path d="M13.3301 114.182L10.0635 104.675L6.5918 114.182H13.3301ZM8.54004 101.481H11.8359L19.6436 123H16.4502L14.2676 116.555H5.75684L3.42773 123H0.439453L8.54004 101.481ZM22.6318 107.312L25.6494 119.675L28.7109 107.312H31.6699L34.7461 119.602L37.9541 107.312H40.5908L36.0352 123H33.2959L30.1025 110.856L27.0117 123H24.2725L19.7461 107.312H22.6318ZM45.1172 118.825C45.1172 119.587 45.3955 120.188 45.9521 120.627C46.5088 121.066 47.168 121.286 47.9297 121.286C48.8574 121.286 49.7559 121.071 50.625 120.642C52.0898 119.929 52.8223 118.762 52.8223 117.141V115.017C52.5 115.222 52.085 115.393 51.5771 115.529C51.0693 115.666 50.5713 115.764 50.083 115.822L48.4863 116.027C47.5293 116.154 46.8115 116.354 46.333 116.628C45.5225 117.087 45.1172 117.819 45.1172 118.825ZM51.5039 113.493C52.1094 113.415 52.5146 113.161 52.7197 112.731C52.8369 112.497 52.8955 112.16 52.8955 111.721C52.8955 110.822 52.5732 110.173 51.9287 109.772C51.2939 109.362 50.3809 109.157 49.1895 109.157C47.8125 109.157 46.8359 109.528 46.2598 110.271C45.9375 110.681 45.7275 111.291 45.6299 112.102H43.1689C43.2178 110.168 43.8428 108.825 45.0439 108.073C46.2549 107.312 47.6562 106.931 49.248 106.931C51.0938 106.931 52.5928 107.282 53.7451 107.985C54.8877 108.688 55.459 109.782 55.459 111.267V120.305C55.459 120.578 55.5127 120.798 55.6201 120.964C55.7373 121.13 55.9766 121.213 56.3379 121.213C56.4551 121.213 56.5869 121.208 56.7334 121.198C56.8799 121.179 57.0361 121.154 57.2021 121.125V123.073C56.792 123.19 56.4795 123.264 56.2646 123.293C56.0498 123.322 55.7568 123.337 55.3857 123.337C54.4775 123.337 53.8184 123.015 53.4082 122.37C53.1934 122.028 53.042 121.545 52.9541 120.92C52.417 121.623 51.6455 122.233 50.6396 122.751C49.6338 123.269 48.5254 123.527 47.3145 123.527C45.8594 123.527 44.668 123.088 43.7402 122.209C42.8223 121.32 42.3633 120.212 42.3633 118.884C42.3633 117.429 42.8174 116.301 43.7256 115.5C44.6338 114.699 45.8252 114.206 47.2998 114.021L51.5039 113.493ZM59.8682 107.312H62.373V110.021C62.5781 109.494 63.0811 108.854 63.8818 108.103C64.6826 107.341 65.6055 106.96 66.6504 106.96C66.6992 106.96 66.7822 106.965 66.8994 106.975C67.0166 106.984 67.2168 107.004 67.5 107.033V109.816C67.3438 109.787 67.1973 109.768 67.0605 109.758C66.9336 109.748 66.792 109.743 66.6357 109.743C65.3076 109.743 64.2871 110.173 63.5742 111.032C62.8613 111.882 62.5049 112.863 62.5049 113.977V123H59.8682V107.312ZM71.4551 115.339C71.4551 117.019 71.8115 118.425 72.5244 119.558C73.2373 120.69 74.3799 121.257 75.9521 121.257C77.1729 121.257 78.1738 120.734 78.9551 119.689C79.7461 118.635 80.1416 117.126 80.1416 115.163C80.1416 113.181 79.7363 111.716 78.9258 110.769C78.1152 109.812 77.1143 109.333 75.9229 109.333C74.5947 109.333 73.5156 109.841 72.6855 110.856C71.8652 111.872 71.4551 113.366 71.4551 115.339ZM75.4248 107.033C76.626 107.033 77.6318 107.287 78.4424 107.795C78.9111 108.088 79.4434 108.601 80.0391 109.333V101.408H82.5732V123H80.2002V120.817C79.585 121.784 78.8574 122.482 78.0176 122.912C77.1777 123.342 76.2158 123.557 75.1318 123.557C73.3838 123.557 71.8701 122.824 70.5908 121.359C69.3115 119.885 68.6719 117.927 68.6719 115.485C68.6719 113.2 69.2529 111.223 70.415 109.553C71.5869 107.873 73.2568 107.033 75.4248 107.033Z" fill="white"/>
<path d="M20.5204 17.4648L20.7177 17.4319L20.7505 17.2351C21.178 14.774 22.592 12.6083 24.6471 11.1973L13.7959 0.368579C13.0067 -0.418961 11.6421 0.138879 11.6421 1.25456L11.5763 8.91667L4.29281 8.78541C3.15836 8.76901 2.56648 10.1308 3.3721 10.9347L14.1247 21.665C14.1411 21.6486 14.1411 21.6157 14.1576 21.5993C15.588 19.3844 17.9062 17.8749 20.5204 17.4648Z" fill="white"/>
<path d="M82.6354 69.0491L71.8828 58.3188C71.8663 58.3353 71.8663 58.3681 71.8499 58.3845C70.4195 60.6158 68.1013 62.1253 65.4871 62.5355L65.2898 62.5683L65.2569 62.7652C64.8295 65.2262 63.4155 67.392 61.3604 68.803L72.2116 79.6316C73.0008 80.4192 74.3654 79.8613 74.3654 78.7457L74.4312 71.0836L81.7147 71.2148C82.8491 71.2312 83.4246 69.853 82.6354 69.0491Z" fill="white"/>
<path d="M64.6162 57.1049C66.8358 56.7603 68.2497 54.5454 67.6414 52.396L67.2304 50.985C66.7865 49.4428 67.3784 47.8021 68.7101 46.8833L69.9268 46.0465C71.7846 44.7667 72.097 42.1744 70.6008 40.4845L69.6144 39.3852C68.5457 38.1875 68.3648 36.4484 69.154 35.0538L69.8774 33.774C70.9954 31.8216 70.1405 29.3441 68.0689 28.4745L66.7043 27.9167C65.2245 27.2932 64.3038 25.8166 64.4025 24.2087L64.5011 22.7484C64.6655 20.5171 62.8077 18.6467 60.5717 18.7615L59.1084 18.8436C57.4971 18.9256 56.0174 17.9904 55.4255 16.4973L54.883 15.1356C54.0445 13.0519 51.5783 12.1659 49.6053 13.2487L48.3229 13.9542C46.909 14.7254 45.1662 14.5121 43.9824 13.4292L42.8973 12.4284C41.2367 10.9025 38.6225 11.1814 37.3237 13.019L36.4687 14.2168C35.5316 15.5293 33.871 16.0872 32.342 15.6278L30.928 15.2012C28.7742 14.5449 26.5382 15.9231 26.1601 18.138L25.9134 19.5819C25.6339 21.157 24.3844 22.3875 22.806 22.6336L21.3592 22.8633C19.1396 23.2078 17.7257 25.4228 18.334 27.5721L18.745 28.9831C19.1889 30.5254 18.5971 32.1661 17.2653 33.0849L16.0487 33.9217C14.1908 35.2014 13.8784 37.7937 15.3746 39.4837L16.361 40.5829C17.4297 41.7807 17.6106 43.5198 16.8214 44.9144L16.098 46.1942C14.98 48.1466 15.8349 50.6241 17.9065 51.4936L19.2712 52.0515C20.7509 52.675 21.6716 54.1516 21.5729 55.7595L21.4743 57.2197C21.3099 59.4511 23.1677 61.3215 25.4038 61.2066L26.867 61.1246C28.4783 61.0426 29.958 61.9778 30.5499 63.4708L31.0924 64.8326C31.9309 66.9163 34.3971 67.8023 36.3701 66.7194L37.6525 66.0139C39.0665 65.2428 40.8092 65.4561 41.993 66.5389L43.0781 67.5398C44.7387 69.0656 47.3529 68.7867 48.6517 66.9491L49.5067 65.7514C50.4438 64.4388 52.1044 63.881 53.6334 64.3404L55.0474 64.767C57.2012 65.4233 59.4372 64.0451 59.8154 61.8301L60.062 60.3863C60.3415 58.8112 61.591 57.5807 63.1694 57.3346L64.6162 57.1049ZM55.5242 52.4945C48.6024 59.4019 37.373 59.4019 30.4512 52.4945C23.5294 45.5871 23.5294 34.3811 30.4512 27.4737C37.373 20.5663 48.6024 20.5663 55.5242 27.4737C62.446 34.3975 62.446 45.5871 55.5242 52.4945Z" fill="white"/>
<path d="M47.2536 34.6113L44.4421 27.7368C43.916 26.4406 42.0746 26.4406 41.5484 27.7368L38.737 34.6113L31.322 35.1528C29.9244 35.2512 29.3654 36.9904 30.4341 37.8928L36.1228 42.6836L34.3472 49.8863C34.0183 51.2481 35.498 52.3146 36.6818 51.5763L42.9953 47.655L49.3087 51.5763C50.4925 52.3146 51.9887 51.2317 51.6434 49.8863L49.8677 42.6836L55.5564 37.8928C56.6251 36.9904 56.0661 35.2512 54.6686 35.1528L47.2536 34.6113Z" fill="white"/>
</svg>
