<svg width="85" height="131" viewBox="0 0 85 131" fill="none" xmlns="http://www.w3.org/2000/svg">
<path d="M13.3301 115.182L10.0635 105.675L6.5918 115.182H13.3301ZM8.54004 102.482H11.8359L19.6436 124H16.4502L14.2676 117.555H5.75684L3.42773 124H0.439453L8.54004 102.482ZM22.6318 108.312L25.6494 120.675L28.7109 108.312H31.6699L34.7461 120.602L37.9541 108.312H40.5908L36.0352 124H33.2959L30.1025 111.857L27.0117 124H24.2725L19.7461 108.312H22.6318ZM45.1172 119.826C45.1172 120.587 45.3955 121.188 45.9521 121.627C46.5088 122.067 47.168 122.287 47.9297 122.287C48.8574 122.287 49.7559 122.072 50.625 121.642C52.0898 120.929 52.8223 119.762 52.8223 118.141V116.017C52.5 116.222 52.085 116.393 51.5771 116.53C51.0693 116.667 50.5713 116.764 50.083 116.823L48.4863 117.028C47.5293 117.155 46.8115 117.355 46.333 117.628C45.5225 118.087 45.1172 118.82 45.1172 119.826ZM51.5039 114.494C52.1094 114.416 52.5146 114.162 52.7197 113.732C52.8369 113.498 52.8955 113.161 52.8955 112.721C52.8955 111.823 52.5732 111.173 51.9287 110.773C51.2939 110.363 50.3809 110.158 49.1895 110.158C47.8125 110.158 46.8359 110.529 46.2598 111.271C45.9375 111.681 45.7275 112.292 45.6299 113.102H43.1689C43.2178 111.168 43.8428 109.826 45.0439 109.074C46.2549 108.312 47.6562 107.931 49.248 107.931C51.0938 107.931 52.5928 108.283 53.7451 108.986C54.8877 109.689 55.459 110.783 55.459 112.267V121.305C55.459 121.579 55.5127 121.798 55.6201 121.964C55.7373 122.13 55.9766 122.213 56.3379 122.213C56.4551 122.213 56.5869 122.208 56.7334 122.199C56.8799 122.179 57.0361 122.155 57.2021 122.125V124.074C56.792 124.191 56.4795 124.264 56.2646 124.293C56.0498 124.323 55.7568 124.337 55.3857 124.337C54.4775 124.337 53.8184 124.015 53.4082 123.371C53.1934 123.029 53.042 122.545 52.9541 121.92C52.417 122.624 51.6455 123.234 50.6396 123.751C49.6338 124.269 48.5254 124.528 47.3145 124.528C45.8594 124.528 44.668 124.088 43.7402 123.209C42.8223 122.321 42.3633 121.212 42.3633 119.884C42.3633 118.429 42.8174 117.301 43.7256 116.5C44.6338 115.7 45.8252 115.207 47.2998 115.021L51.5039 114.494ZM59.8682 108.312H62.373V111.022C62.5781 110.495 63.0811 109.855 63.8818 109.103C64.6826 108.341 65.6055 107.96 66.6504 107.96C66.6992 107.96 66.7822 107.965 66.8994 107.975C67.0166 107.985 67.2168 108.004 67.5 108.034V110.817C67.3438 110.788 67.1973 110.768 67.0605 110.758C66.9336 110.749 66.792 110.744 66.6357 110.744C65.3076 110.744 64.2871 111.173 63.5742 112.033C62.8613 112.882 62.5049 113.864 62.5049 114.977V124H59.8682V108.312ZM71.4551 116.339C71.4551 118.019 71.8115 119.425 72.5244 120.558C73.2373 121.691 74.3799 122.257 75.9521 122.257C77.1729 122.257 78.1738 121.735 78.9551 120.69C79.7461 119.635 80.1416 118.126 80.1416 116.164C80.1416 114.181 79.7363 112.716 78.9258 111.769C78.1152 110.812 77.1143 110.333 75.9229 110.333C74.5947 110.333 73.5156 110.841 72.6855 111.857C71.8652 112.873 71.4551 114.367 71.4551 116.339ZM75.4248 108.034C76.626 108.034 77.6318 108.288 78.4424 108.795C78.9111 109.088 79.4434 109.601 80.0391 110.333V102.409H82.5732V124H80.2002V121.818C79.585 122.785 78.8574 123.483 78.0176 123.913C77.1777 124.342 76.2158 124.557 75.1318 124.557C73.3838 124.557 71.8701 123.825 70.5908 122.36C69.3115 120.885 68.6719 118.927 68.6719 116.486C68.6719 114.201 69.2529 112.223 70.415 110.553C71.5869 108.874 73.2568 108.034 75.4248 108.034Z" fill="white"/>
<path d="M30.647 49.5393C30.647 49.5393 10 13.5843 10 12.557V3.56822C10 2.1557 11.1471 1 12.549 1L37.4427 45.764" fill="white"/>
<path d="M30.647 49.5393C30.647 49.5393 10 13.5843 10 12.557V3.56822C10 2.1557 11.1471 1 12.549 1L37.4427 45.764" stroke="white" stroke-width="2"/>
<path d="M54.7353 48.6404C54.7353 48.6404 75 13.7127 75 12.557V3.56822C75 2.1557 73.853 1 72.451 1L48.2354 44.6597" fill="white"/>
<path d="M54.7353 48.6405C54.7353 48.6405 75 13.7127 75 12.557V3.56822C75 2.1557 73.853 1 72.451 1L48.2354 44.6597" stroke="white" stroke-width="2"/>
<path d="M43.2645 81.0005C53.1894 81.0005 61.2351 72.8941 61.2351 62.8945C61.2351 52.8949 53.1894 44.7886 43.2645 44.7886C33.3396 44.7886 25.2939 52.8949 25.2939 62.8945C25.2939 72.8941 33.3396 81.0005 43.2645 81.0005Z" fill="white" stroke="white" stroke-width="2"/>
<path d="M43.1372 75.6065C50.1761 75.6065 55.8822 69.8573 55.8822 62.7654C55.8822 55.6735 50.1761 49.9243 43.1372 49.9243C36.0983 49.9243 30.3921 55.6735 30.3921 62.7654C30.3921 69.8573 36.0983 75.6065 43.1372 75.6065Z" fill="white" stroke="#171429" stroke-width="2"/>
<path d="M39.314 61.3533L43.1375 57.501V69.058" stroke="#171429" stroke-width="2"/>
</svg>
