<svg width="85" height="131" viewBox="0 0 85 131" fill="none" xmlns="http://www.w3.org/2000/svg">
<path d="M13.3301 114.639L10.0635 105.132L6.5918 114.639H13.3301ZM8.54004 101.938H11.8359L19.6436 123.457H16.4502L14.2676 117.012H5.75684L3.42773 123.457H0.439453L8.54004 101.938ZM22.6318 107.769L25.6494 120.132L28.7109 107.769H31.6699L34.7461 120.059L37.9541 107.769H40.5908L36.0352 123.457H33.2959L30.1025 111.313L27.0117 123.457H24.2725L19.7461 107.769H22.6318ZM45.1172 119.282C45.1172 120.044 45.3955 120.645 45.9521 121.084C46.5088 121.523 47.168 121.743 47.9297 121.743C48.8574 121.743 49.7559 121.528 50.625 121.099C52.0898 120.386 52.8223 119.219 52.8223 117.598V115.474C52.5 115.679 52.085 115.85 51.5771 115.986C51.0693 116.123 50.5713 116.221 50.083 116.279L48.4863 116.484C47.5293 116.611 46.8115 116.812 46.333 117.085C45.5225 117.544 45.1172 118.276 45.1172 119.282ZM51.5039 113.95C52.1094 113.872 52.5146 113.618 52.7197 113.188C52.8369 112.954 52.8955 112.617 52.8955 112.178C52.8955 111.279 52.5732 110.63 51.9287 110.229C51.2939 109.819 50.3809 109.614 49.1895 109.614C47.8125 109.614 46.8359 109.985 46.2598 110.728C45.9375 111.138 45.7275 111.748 45.6299 112.559H43.1689C43.2178 110.625 43.8428 109.282 45.0439 108.53C46.2549 107.769 47.6562 107.388 49.248 107.388C51.0938 107.388 52.5928 107.739 53.7451 108.442C54.8877 109.146 55.459 110.239 55.459 111.724V120.762C55.459 121.035 55.5127 121.255 55.6201 121.421C55.7373 121.587 55.9766 121.67 56.3379 121.67C56.4551 121.67 56.5869 121.665 56.7334 121.655C56.8799 121.636 57.0361 121.611 57.2021 121.582V123.53C56.792 123.647 56.4795 123.721 56.2646 123.75C56.0498 123.779 55.7568 123.794 55.3857 123.794C54.4775 123.794 53.8184 123.472 53.4082 122.827C53.1934 122.485 53.042 122.002 52.9541 121.377C52.417 122.08 51.6455 122.69 50.6396 123.208C49.6338 123.726 48.5254 123.984 47.3145 123.984C45.8594 123.984 44.668 123.545 43.7402 122.666C42.8223 121.777 42.3633 120.669 42.3633 119.341C42.3633 117.886 42.8174 116.758 43.7256 115.957C44.6338 115.156 45.8252 114.663 47.2998 114.478L51.5039 113.95ZM59.8682 107.769H62.373V110.479C62.5781 109.951 63.0811 109.312 63.8818 108.56C64.6826 107.798 65.6055 107.417 66.6504 107.417C66.6992 107.417 66.7822 107.422 66.8994 107.432C67.0166 107.441 67.2168 107.461 67.5 107.49V110.273C67.3438 110.244 67.1973 110.225 67.0605 110.215C66.9336 110.205 66.792 110.2 66.6357 110.2C65.3076 110.2 64.2871 110.63 63.5742 111.489C62.8613 112.339 62.5049 113.32 62.5049 114.434V123.457H59.8682V107.769ZM71.4551 115.796C71.4551 117.476 71.8115 118.882 72.5244 120.015C73.2373 121.147 74.3799 121.714 75.9521 121.714C77.1729 121.714 78.1738 121.191 78.9551 120.146C79.7461 119.092 80.1416 117.583 80.1416 115.62C80.1416 113.638 79.7363 112.173 78.9258 111.226C78.1152 110.269 77.1143 109.79 75.9229 109.79C74.5947 109.79 73.5156 110.298 72.6855 111.313C71.8652 112.329 71.4551 113.823 71.4551 115.796ZM75.4248 107.49C76.626 107.49 77.6318 107.744 78.4424 108.252C78.9111 108.545 79.4434 109.058 80.0391 109.79V101.865H82.5732V123.457H80.2002V121.274C79.585 122.241 78.8574 122.939 78.0176 123.369C77.1777 123.799 76.2158 124.014 75.1318 124.014C73.3838 124.014 71.8701 123.281 70.5908 121.816C69.3115 120.342 68.6719 118.384 68.6719 115.942C68.6719 113.657 69.2529 111.68 70.415 110.01C71.5869 108.33 73.2568 107.49 75.4248 107.49Z" fill="white"/>
<path d="M65.5488 44.5722C65.5488 48.6553 62.202 51.9636 58.0737 51.9636H26.9256C22.7972 51.9636 19.4507 48.6551 19.4507 44.5722V13.7706C19.4507 9.68919 22.7972 6.37891 26.9256 6.37891H58.0739C62.2023 6.37891 65.5491 9.68919 65.5491 13.7706V44.5722H65.5488Z" fill="white"/>
<path d="M47.7862 56.1787C44.8666 59.065 40.1323 59.065 37.2138 56.1787L15.1887 34.3998C12.2704 31.5125 12.2704 26.8319 15.1887 23.9439L37.2138 2.16473C40.1323 -0.721577 44.8666 -0.721577 47.7862 2.16473L69.8115 23.9439C72.7295 26.8319 72.7295 31.5125 69.8115 34.3998L47.7862 56.1787Z" fill="white"/>
<path d="M42.5003 49.5009C53.8541 49.5009 63.0582 40.3992 63.0582 29.1718C63.0582 17.9444 53.8541 8.84277 42.5003 8.84277C31.1465 8.84277 21.9424 17.9444 21.9424 29.1718C21.9424 40.3992 31.1465 49.5009 42.5003 49.5009Z" fill="#171429"/>
<path d="M42.4999 46.86C52.3785 46.86 60.3866 38.941 60.3866 29.1724C60.3866 19.4038 52.3785 11.4849 42.4999 11.4849C32.6214 11.4849 24.6133 19.4038 24.6133 29.1724C24.6133 38.941 32.6214 46.86 42.4999 46.86Z" fill="white"/>
<path d="M42.4971 14.8931L46.7072 23.324L56.1163 24.6775L49.306 31.2398L50.9137 40.5078L42.4971 36.1323L34.0795 40.5078L35.6875 31.2398L28.8794 24.6775L38.2896 23.324L42.4971 14.8931Z" fill="#171429"/>
<path d="M34.3562 80.9146L17.9014 75.1326L33.4376 50.3945H42.1243L34.3562 80.9146Z" fill="white"/>
<path d="M50.6441 80.9146L67.0989 75.1326L51.5627 50.3945H42.876L50.6441 80.9146Z" fill="white"/>
</svg>
