<svg width="85" height="105" viewBox="0 0 85 105" fill="none" xmlns="http://www.w3.org/2000/svg">
<path d="M13.3301 89.1816L10.0635 79.6748L6.5918 89.1816H13.3301ZM8.54004 76.4814H11.8359L19.6436 98H16.4502L14.2676 91.5547H5.75684L3.42773 98H0.439453L8.54004 76.4814ZM22.6318 82.3115L25.6494 94.6748L28.7109 82.3115H31.6699L34.7461 94.6016L37.9541 82.3115H40.5908L36.0352 98H33.2959L30.1025 85.8564L27.0117 98H24.2725L19.7461 82.3115H22.6318ZM45.1172 93.8252C45.1172 94.5869 45.3955 95.1875 45.9521 95.627C46.5088 96.0664 47.168 96.2861 47.9297 96.2861C48.8574 96.2861 49.7559 96.0713 50.625 95.6416C52.0898 94.9287 52.8223 93.7617 52.8223 92.1406V90.0166C52.5 90.2217 52.085 90.3926 51.5771 90.5293C51.0693 90.666 50.5713 90.7637 50.083 90.8223L48.4863 91.0273C47.5293 91.1543 46.8115 91.3545 46.333 91.6279C45.5225 92.0869 45.1172 92.8193 45.1172 93.8252ZM51.5039 88.4932C52.1094 88.415 52.5146 88.1611 52.7197 87.7314C52.8369 87.4971 52.8955 87.1602 52.8955 86.7207C52.8955 85.8223 52.5732 85.1729 51.9287 84.7725C51.2939 84.3623 50.3809 84.1572 49.1895 84.1572C47.8125 84.1572 46.8359 84.5283 46.2598 85.2705C45.9375 85.6807 45.7275 86.291 45.6299 87.1016H43.1689C43.2178 85.168 43.8428 83.8252 45.0439 83.0732C46.2549 82.3115 47.6562 81.9307 49.248 81.9307C51.0938 81.9307 52.5928 82.2822 53.7451 82.9854C54.8877 83.6885 55.459 84.7822 55.459 86.2666V95.3047C55.459 95.5781 55.5127 95.7979 55.6201 95.9639C55.7373 96.1299 55.9766 96.2129 56.3379 96.2129C56.4551 96.2129 56.5869 96.208 56.7334 96.1982C56.8799 96.1787 57.0361 96.1543 57.2021 96.125V98.0732C56.792 98.1904 56.4795 98.2637 56.2646 98.293C56.0498 98.3223 55.7568 98.3369 55.3857 98.3369C54.4775 98.3369 53.8184 98.0146 53.4082 97.3701C53.1934 97.0283 53.042 96.5449 52.9541 95.9199C52.417 96.623 51.6455 97.2334 50.6396 97.751C49.6338 98.2686 48.5254 98.5273 47.3145 98.5273C45.8594 98.5273 44.668 98.0879 43.7402 97.209C42.8223 96.3203 42.3633 95.2119 42.3633 93.8838C42.3633 92.4287 42.8174 91.3008 43.7256 90.5C44.6338 89.6992 45.8252 89.2061 47.2998 89.0205L51.5039 88.4932ZM59.8682 82.3115H62.373V85.0215C62.5781 84.4941 63.0811 83.8545 63.8818 83.1025C64.6826 82.3408 65.6055 81.96 66.6504 81.96C66.6992 81.96 66.7822 81.9648 66.8994 81.9746C67.0166 81.9844 67.2168 82.0039 67.5 82.0332V84.8164C67.3438 84.7871 67.1973 84.7676 67.0605 84.7578C66.9336 84.748 66.792 84.7432 66.6357 84.7432C65.3076 84.7432 64.2871 85.1729 63.5742 86.0322C62.8613 86.8818 62.5049 87.8633 62.5049 88.9766V98H59.8682V82.3115ZM71.4551 90.3389C71.4551 92.0186 71.8115 93.4248 72.5244 94.5576C73.2373 95.6904 74.3799 96.2568 75.9521 96.2568C77.1729 96.2568 78.1738 95.7344 78.9551 94.6895C79.7461 93.6348 80.1416 92.126 80.1416 90.1631C80.1416 88.1807 79.7363 86.7158 78.9258 85.7686C78.1152 84.8115 77.1143 84.333 75.9229 84.333C74.5947 84.333 73.5156 84.8408 72.6855 85.8564C71.8652 86.8721 71.4551 88.3662 71.4551 90.3389ZM75.4248 82.0332C76.626 82.0332 77.6318 82.2871 78.4424 82.7949C78.9111 83.0879 79.4434 83.6006 80.0391 84.333V76.4082H82.5732V98H80.2002V95.8174C79.585 96.7842 78.8574 97.4824 78.0176 97.9121C77.1777 98.3418 76.2158 98.5566 75.1318 98.5566C73.3838 98.5566 71.8701 97.8242 70.5908 96.3594C69.3115 94.8848 68.6719 92.9268 68.6719 90.4854C68.6719 88.2002 69.2529 86.2227 70.415 84.5527C71.5869 82.873 73.2568 82.0332 75.4248 82.0332Z" fill="white"/>
<path d="M65.0695 24.9877L65.0206 24.8905L65.1022 24.8096C66.5219 23.5626 67.3378 21.7812 67.3541 19.9027C67.3541 18.0242 66.5545 16.2266 65.1348 14.9797L65.0532 14.8987L65.1022 14.8015C65.2817 14.3967 65.4122 13.9594 65.4938 13.5222H82.3344C82.8892 13.5222 83.1993 14.1538 82.8566 14.591L78.777 19.6274C78.6464 19.7893 78.6464 20.0161 78.777 20.178L82.8403 25.0849C83.1993 25.5059 82.8892 26.1537 82.3344 26.1537H65.4285C65.3306 25.7488 65.2164 25.3602 65.0695 24.9877ZM3.647 26.1375H20.4876C20.5692 25.7002 20.6997 25.2792 20.8792 24.8581L20.9282 24.761L20.8466 24.68C19.4269 23.433 18.611 21.6355 18.6273 19.757C18.6273 17.8784 19.4595 16.0809 20.8792 14.8501L20.9608 14.7691L20.9119 14.672C20.7487 14.2995 20.6345 13.9108 20.5529 13.5222H3.67964C3.12481 13.5222 2.81476 14.1699 3.17377 14.591L7.23705 19.4978C7.3676 19.6598 7.3676 19.8865 7.23705 20.0485L3.15745 25.0849C2.79844 25.5059 3.09218 26.1375 3.647 26.1375ZM19.9981 48.113L16.9139 47.8863L15.7389 45.0361C15.5268 44.5017 14.7598 44.5017 14.5314 45.0361L13.3565 47.8863L10.2723 48.113C9.68482 48.1616 9.45636 48.8742 9.89696 49.2466L12.2631 51.2223L11.5288 54.2021C11.3819 54.7689 12.002 55.2061 12.5079 54.8984L15.1352 53.279L17.7624 54.8984C18.252 55.2061 18.8721 54.7527 18.7415 54.2021L18.0072 51.2223L20.3734 49.2466C20.814 48.8742 20.5855 48.1616 19.9981 48.113ZM33.934 48.113L30.8498 47.8863L29.6749 45.0361C29.4627 44.5017 28.6958 44.5017 28.4673 45.0361L27.2924 47.8863L24.2082 48.113C23.6207 48.1616 23.3923 48.8742 23.8329 49.2466L26.1991 51.2223L25.4647 54.2021C25.3179 54.7689 25.938 55.2061 26.4438 54.8984L29.0711 53.279L31.6984 54.8984C32.1879 55.2061 32.808 54.7527 32.6775 54.2021L31.9431 51.2223L34.3093 49.2466C34.7499 48.8742 34.5051 48.1616 33.934 48.113ZM47.8536 48.113L44.7694 47.8863L43.5945 45.0361C43.3823 44.5017 42.6154 44.5017 42.3869 45.0361L41.212 47.8863L38.1278 48.113C37.5404 48.1616 37.3119 48.8742 37.7525 49.2466L40.1187 51.2223L39.3843 54.2021C39.2375 54.7689 39.8576 55.2061 40.3634 54.8984L42.9907 53.279L45.618 54.8984C46.1075 55.2061 46.7276 54.7527 46.5971 54.2021L45.8627 51.2223L48.2289 49.2466C48.6695 48.8742 48.4247 48.1616 47.8536 48.113ZM61.7732 48.113L58.689 47.8863L57.5141 45.0361C57.302 44.5017 56.535 44.5017 56.3065 45.0361L55.1316 47.8863L52.0474 48.113C51.46 48.1616 51.2315 48.8742 51.6721 49.2466L54.0383 51.2223L53.3039 54.2021C53.1571 54.7689 53.7772 55.2061 54.2831 54.8984L56.9103 53.279L59.5376 54.8984C60.0271 55.2061 60.6472 54.7527 60.5167 54.2021L59.7824 51.2223L62.1485 49.2466C62.5891 48.8742 62.3607 48.1616 61.7732 48.113ZM75.6928 48.113L72.6086 47.8863L71.4337 45.0361C71.2216 44.5017 70.4546 44.5017 70.2261 45.0361L69.0512 47.8863L65.967 48.113C65.3796 48.1616 65.1511 48.8742 65.5917 49.2466L67.9579 51.2223L67.2235 54.2021C67.0767 54.7689 67.6968 55.2061 68.2027 54.8984L70.8299 53.279L73.4572 54.8984C73.9467 55.2061 74.5668 54.7527 74.4363 54.2021L73.702 51.2223L76.0681 49.2466C76.5087 48.8742 76.2803 48.1616 75.6928 48.113ZM62.4586 21.8298L61.6753 22.51C60.8267 23.2549 60.533 24.4533 60.9736 25.5059L61.3816 26.4614C62.0017 27.9188 61.1857 29.5868 59.6518 30.0079L58.6401 30.2832C57.5467 30.5909 56.7634 31.5464 56.6982 32.6799L56.6492 33.7164C56.5676 35.1415 55.3927 36.2103 54.0056 36.2103C53.8424 36.2103 53.6956 36.1941 53.5324 36.1617L52.5043 35.9836C52.3412 35.9512 52.1943 35.935 52.0311 35.935C51.0683 35.935 50.1708 36.4532 49.7139 37.2953L49.208 38.2022C48.7185 39.0767 47.8046 39.5625 46.8745 39.5625C46.336 39.5625 45.7975 39.4005 45.3242 39.0605L44.4757 38.4613C44.0188 38.1212 43.4639 37.9593 42.9254 37.9593C42.3869 37.9593 41.8484 38.1212 41.3752 38.4451L40.5266 39.0443C40.0534 39.3844 39.5149 39.5301 38.9927 39.5301C38.0625 39.5301 37.1487 39.0443 36.6592 38.1536L36.1696 37.2467C35.6964 36.3884 34.7989 35.8702 33.8361 35.8702C33.6892 35.8702 33.526 35.8864 33.3792 35.9026L32.3511 36.0807C32.2042 36.1131 32.041 36.1131 31.8942 36.1131C30.5071 36.1131 29.3159 35.0281 29.2506 33.603L29.2016 32.5666C29.1527 31.433 28.3694 30.4613 27.2761 30.1536L26.2806 29.8783C24.7467 29.4411 23.9471 27.7731 24.5672 26.3156L24.9752 25.3602C25.4158 24.3237 25.1384 23.1092 24.2898 22.3642L23.5065 21.6841C22.3153 20.6314 22.3153 18.7853 23.5228 17.7327L24.3061 17.0525C25.1547 16.3076 25.4484 15.1092 25.0078 14.0566L24.5998 13.1011C23.9798 11.6436 24.7957 9.97564 26.3296 9.55459L27.3413 9.27929C28.4347 8.9716 29.218 8.01614 29.2832 6.88255L29.3322 5.84611C29.4138 4.42102 30.5887 3.35221 31.9758 3.35221C32.139 3.35221 32.2858 3.3684 32.449 3.40079L33.4771 3.57892C33.6403 3.61131 33.7871 3.62751 33.9503 3.62751C34.9131 3.62751 35.8106 3.10929 36.2675 2.26719L36.7734 1.36032C37.2629 0.485827 38.1768 0 39.1069 0C39.6454 0 40.1839 0.161942 40.6572 0.502021L41.5057 1.10121C41.9626 1.44129 42.5175 1.60323 43.056 1.60323C43.5945 1.60323 44.133 1.44129 44.6062 1.1174L45.4548 0.518216C45.928 0.178137 46.4665 0.0323892 46.9887 0.0323892C47.9189 0.0323892 48.8327 0.518216 49.3222 1.4089L49.8118 2.31577C50.285 3.17407 51.1825 3.69228 52.1453 3.69228C52.2922 3.69228 52.4391 3.67609 52.6022 3.65989L53.6303 3.48176C53.7772 3.44937 53.9404 3.44937 54.0872 3.44937C55.4743 3.44937 56.6655 4.53438 56.7308 5.95948L56.7798 6.99591C56.8287 8.1295 57.612 9.10116 58.7053 9.40884L59.7171 9.68415C61.251 10.1214 62.0506 11.7894 61.4305 13.2469L61.0226 14.2023C60.582 15.2388 60.8594 16.4533 61.7079 17.1983L62.4912 17.8784C63.6661 18.931 63.6661 20.7772 62.4586 21.8298ZM51.46 16.1618L48.2452 12.9554L40.853 20.259L37.7525 17.1659L34.5214 20.3561L37.6219 23.4492L40.8367 26.6557L44.0677 23.4654L51.46 16.1618Z" fill="white"/>
</svg>
