<svg width="62" height="60" viewBox="0 0 62 60" fill="none" xmlns="http://www.w3.org/2000/svg">
<path d="M61.9645 55.2715C61.9121 54.3991 61.8143 53.536 61.7499 52.6683C61.614 50.7263 61.6903 48.7938 61.7928 46.8519C61.8477 45.8012 60.8581 44.9241 59.8327 44.9241C59.2961 44.9241 58.8335 45.1375 58.4877 45.4729C58.2803 45.3978 58.0657 45.3462 57.8344 45.3627C57.6269 45.3791 57.4218 45.4002 57.2167 45.4236C57.1643 44.8139 57.1404 44.2017 57.1166 43.5967C57.0832 42.7969 57.0522 42.0042 57.0284 41.2091C56.9687 39.4103 56.8686 37.6044 56.7899 35.8056C56.7112 34.0114 56.7708 32.2056 56.7899 30.4067C56.7994 29.5437 56.7947 28.6853 56.8376 27.8222C56.8805 26.9404 56.9449 26.0586 56.9735 25.172C57.0284 23.589 57.0284 21.9965 57.0665 20.4111C57.1094 18.8374 57.1309 17.2637 57.1357 15.6853C57.4004 15.7182 57.6627 15.7533 57.9297 15.7768C58.3637 15.819 58.8073 15.8284 59.2461 15.8401C59.4416 15.8448 59.6228 15.7885 59.8017 15.7346C59.8207 15.7346 59.8374 15.7463 59.8589 15.7463C60.8581 15.7463 61.707 14.9208 61.7022 13.9334C61.6927 12.2073 61.7213 10.4764 61.7571 8.7456C61.8 6.82715 61.9812 4.91574 61.9955 2.99729C61.9979 2.46021 61.7571 1.97239 61.3851 1.6206C61.1681 1.01551 60.7054 0.497202 60.0425 0.333032C59.5155 0.20404 58.9504 0.227494 58.409 0.189969C57.9369 0.161825 57.4624 0.136027 56.9902 0.112574C56.2486 0.0797402 55.5141 0.0164173 54.7725 0.0117267C53.8759 0.00469085 52.9816 0 52.085 0C50.5612 0 49.0399 0.014072 47.5161 0.0586326C46.3405 0.0914667 45.3556 0.999095 45.3556 2.17878C45.3556 2.76276 45.6298 3.31625 46.0495 3.71729C46.0805 4.17462 46.1091 4.6343 46.1378 5.09163C45.4033 5.13619 44.6664 5.12916 43.9344 5.14088C43.0664 5.15026 42.2031 5.20421 41.3399 5.2089C39.7207 5.21359 38.104 5.22766 36.4896 5.21828C34.6105 5.20655 32.7338 5.21124 30.8571 5.18779C29.0543 5.16434 27.2539 5.08225 25.4511 5.04942C23.8177 5.02127 22.1842 5.04004 20.5507 4.99782C19.1533 4.96499 17.7559 4.92277 16.3585 4.8829C16.3585 4.42557 16.3538 3.96824 16.3562 3.50856C16.3585 3.07233 16.1797 2.68067 15.9245 2.34998C15.9245 2.32888 15.9365 2.31246 15.9365 2.29135C15.9365 1.77304 15.7266 1.26646 15.3522 0.900593C14.9516 0.508929 14.4842 0.370556 13.9381 0.325996C12.1783 0.173552 10.4137 0.340067 8.64904 0.340067C6.43372 0.344758 4.22079 0.27909 2.00786 0.250947C2.0007 0.250947 1.99116 0.250947 1.98401 0.250947C0.89662 0.250947 0 1.16796 0 2.22568C0 2.80263 0.274232 3.31624 0.686773 3.67977C0.722542 4.52642 0.76785 5.37307 0.786927 6.21972C0.803619 7.125 0.79885 8.02559 0.789312 8.92853C0.779773 9.82912 0.784542 10.7368 0.789312 11.6373C0.794081 12.4957 0.775004 13.3541 0.872773 14.2078C0.930004 14.7238 1.04208 15.1506 1.43078 15.5305C1.78609 15.88 2.27493 16.077 2.78047 16.077C2.9474 16.077 3.10717 16.0254 3.26694 15.9808C4.04194 15.9761 4.81695 15.955 5.58957 15.9363C5.5681 17.7445 5.58003 19.5527 5.52041 21.3609C5.45841 23.0988 5.40118 24.8413 5.24618 26.5722C5.17226 27.4165 5.06018 28.2584 5.06495 29.1074C5.06972 29.994 5.08402 30.8758 5.08402 31.76C5.08879 33.533 5.06495 35.3037 5.07926 37.0767C5.09356 38.5637 5.16749 40.0506 5.24618 41.5351C5.31056 42.675 5.34633 43.8124 5.42741 44.9452C4.90518 44.9382 4.38056 44.9264 3.85833 44.9241C3.1334 44.9217 2.51578 45.3298 2.15093 45.9044C1.60724 46.2468 1.21616 46.8191 1.2257 47.4852C1.24001 48.5265 1.29485 49.5701 1.29008 50.6067C1.28531 51.4417 1.27578 52.2766 1.26147 53.1139C1.24239 53.9183 1.24239 54.7204 1.23285 55.5248C1.23285 55.8743 1.24716 56.2237 1.27578 56.5708C1.3187 57.122 1.36878 57.6356 1.65493 58.1234C1.66685 58.1469 1.6907 58.1609 1.70501 58.182C2.00309 58.8856 2.71132 59.3969 3.52686 59.3899C5.71595 59.3664 7.90027 59.3476 10.0894 59.3711C10.7427 59.3805 11.3866 59.4297 12.04 59.425C12.6433 59.4203 13.2681 59.411 13.8642 59.4719C13.8165 59.4649 13.7688 59.4602 13.7235 59.4532C14.1265 59.486 14.5009 59.4368 14.8825 59.2187C15.3117 58.9701 15.6288 58.562 15.7648 58.0906C15.7862 58.0132 15.7695 57.9311 15.7815 57.8513C16.3609 57.5441 16.7735 56.9601 16.7735 56.2777C16.7735 56.1463 16.7759 56.0173 16.7759 55.886C20.5149 55.7007 24.2421 55.5811 27.986 55.6538C29.8484 55.6866 31.706 55.7101 33.5636 55.7922C35.2686 55.8696 36.9665 55.9657 38.6763 55.9751C40.1333 55.9845 41.5927 56.0244 43.0544 56.0291C44.0083 56.0291 44.9621 56.022 45.916 55.9939C45.9565 56.613 45.9995 57.2298 46.0877 57.8467C46.1759 58.1539 46.3357 58.4259 46.5646 58.6511C46.7697 58.8504 47.0201 58.9818 47.2895 59.0709C47.6568 59.6174 48.2529 60.0137 48.9516 59.9996C50.6972 59.9621 52.4427 59.8566 54.1883 59.8402C54.5793 59.8402 54.9728 59.8448 55.3687 59.8542C56.4656 59.873 57.5673 59.8964 58.6404 59.676C59.1221 59.5775 59.4893 59.2609 59.7421 58.8692C60.6411 59.0263 61.6927 58.508 61.8835 57.5793C62.0432 56.8054 62.0051 56.0478 61.9645 55.2715ZM54.5245 4.03859C54.9251 4.0339 55.3329 4.09723 55.7335 4.12068C56.0793 4.13944 56.425 4.14413 56.766 4.17462C57.2048 4.21215 57.634 4.24264 58.0752 4.24733C58.0657 5.72017 58.0418 7.19067 58.0275 8.66586C58.0156 9.75642 58.0204 10.847 58.0227 11.9375C57.6364 11.9117 57.2477 11.893 56.8614 11.8719C55.9839 11.8226 55.0968 11.8625 54.2193 11.8672C53.1462 11.8766 52.0755 11.8625 51.0024 11.8531C50.7091 11.8484 50.4134 11.8508 50.1201 11.8461C50.1105 10.657 50.1272 9.47029 50.101 8.28123C50.0772 6.92565 50.0342 5.56773 49.9865 4.2098C50.5016 4.19104 51.0143 4.16993 51.527 4.15117C52.5262 4.11834 53.5253 4.04798 54.5245 4.03859ZM9.59812 4.14413C10.2277 4.14413 10.8667 4.14413 11.5034 4.15821C11.7824 4.16759 12.0638 4.17931 12.3452 4.19338C12.3691 5.09632 12.4048 5.99692 12.4382 6.89985C12.4764 7.8497 12.4716 8.80423 12.4811 9.76111C12.4907 10.5421 12.5598 11.3231 12.5884 12.1017C12.5884 12.1439 12.5908 12.1885 12.5932 12.233C11.4486 12.2213 10.304 12.2049 9.16412 12.2237C7.62127 12.2495 6.0808 12.2002 4.53794 12.1674C4.53556 11.9141 4.5141 11.6585 4.5141 11.4028C4.51887 10.5163 4.51887 9.62977 4.50933 8.7456C4.49264 7.2235 4.48071 5.70141 4.45925 4.17931C5.85426 4.1629 7.24927 4.14413 8.64904 4.14413C8.96143 4.14882 9.28097 4.14413 9.59812 4.14413ZM12.1163 55.6937C11.4724 55.6796 10.8238 55.6749 10.1752 55.6608C9.27381 55.6374 8.37719 55.5835 7.47819 55.5553C6.7008 55.5342 5.9258 55.5319 5.15079 55.5248C5.12456 54.643 5.13172 53.7565 5.12456 52.884C5.1031 51.5683 5.11741 50.2503 5.12218 48.9345C6.25488 48.9299 7.38757 48.9252 8.52266 48.9181C9.11643 48.9134 9.70305 48.9041 10.292 48.8994C10.7451 48.8947 11.2077 48.8806 11.6561 48.9369C11.4891 48.9134 11.3151 48.89 11.1481 48.8689C11.7681 48.9557 12.3905 48.9932 13.0153 49.0072C13.0129 51.2353 13.0153 53.4633 13.0868 55.6913C13.001 55.6937 12.9128 55.6866 12.8269 55.689C12.5813 55.6937 12.3476 55.7031 12.1163 55.6937ZM42.0243 52.5017C40.3169 52.483 38.6071 52.4431 36.9045 52.4009C35.116 52.354 33.3347 52.2297 31.5462 52.1804C30.6806 52.157 29.8198 52.1476 28.9565 52.1476C27.9931 52.1476 27.0321 52.1593 26.0664 52.1757C22.983 52.232 19.8973 52.2086 16.814 52.3258C16.845 50.9046 16.9452 49.4833 16.9666 48.0574C16.9714 47.6681 16.8188 47.3233 16.6089 47.0161C16.5755 45.9959 15.7075 45.1328 14.6559 45.1422C13.9596 45.1469 13.2704 45.1375 12.5741 45.1281C12.3977 45.1281 12.2188 45.1281 12.0471 45.1281C11.6632 45.1328 11.2817 45.1328 10.893 45.1094C10.2992 45.0765 9.70543 45.0625 9.11166 45.039C8.95666 43.5826 8.95189 42.1168 8.90897 40.6533C8.88512 39.8231 8.83027 38.9905 8.83027 38.1603C8.8255 37.3113 8.84935 36.467 8.83504 35.6203C8.80404 33.8449 8.82312 32.0648 8.80881 30.2824C8.80404 29.41 8.78497 28.5422 8.7802 27.6698C8.77066 26.8489 8.89704 26.0257 8.92089 25.2049C8.94474 24.4614 8.92566 23.718 8.95427 22.9745C8.98289 22.1747 9.03297 21.382 9.0902 20.587C9.19512 19.0274 9.25951 17.4677 9.30958 15.9081C10.0989 15.9245 10.8882 15.9621 11.6775 15.9761C12.1068 15.9855 12.536 15.9855 12.9604 15.9855C13.3205 15.9855 13.6782 15.9855 14.0383 15.9855C14.2195 15.9855 14.3841 15.9292 14.551 15.8823C14.5605 15.8823 14.5701 15.887 14.582 15.887C15.543 15.887 16.5755 15.0333 16.4825 14.0178C16.4205 13.3799 16.4253 12.7373 16.4062 12.0994C16.3824 11.3231 16.3585 10.5397 16.3633 9.75877C16.3657 9.32489 16.3609 8.89101 16.3609 8.45478C17.7679 8.46885 19.1772 8.47354 20.5865 8.46885C22.6587 8.45947 24.7357 8.45009 26.808 8.50638C28.6012 8.55563 30.3873 8.63068 32.1805 8.65882C33.1606 8.67759 34.1455 8.67289 35.1303 8.6682C35.9697 8.66351 36.8163 8.66351 37.6604 8.6682C39.0793 8.68228 40.4838 8.6682 41.9027 8.60488C42.6634 8.56736 43.4288 8.54156 44.1943 8.51341C44.8954 8.48293 45.6036 8.44306 46.3047 8.47824C46.3405 9.81505 46.3524 11.1519 46.3548 12.4887C46.04 12.8311 45.8325 13.272 45.8325 13.7622C45.8325 14.8011 46.7196 15.7041 47.7879 15.6853C49.6193 15.6548 51.4555 15.5939 53.2916 15.5892C53.3012 17.5756 53.3322 19.5574 53.3417 21.5392C53.3513 22.4937 53.356 23.4482 53.3513 24.3981C53.3465 25.3268 53.2773 26.2485 53.2439 27.1702C53.1796 28.8424 53.1605 30.5123 53.1653 32.1845C53.17 33.1109 53.17 34.0396 53.1939 34.9613C53.2225 35.8619 53.3012 36.7601 53.3393 37.656C53.4538 40.2757 53.6207 42.8907 53.6541 45.5104C51.9181 45.4541 50.1869 45.3509 48.4509 45.2571C48.4222 45.2571 48.3936 45.2548 48.365 45.2548C47.2848 45.2548 46.3977 46.2492 46.3977 47.2764C46.3977 47.2952 46.4072 47.3069 46.4072 47.3257C46.0066 47.6845 45.7443 48.1864 45.7491 48.7516C45.7538 49.9899 45.7801 51.2259 45.8063 52.4642C44.5448 52.5135 43.2857 52.5135 42.0243 52.5017ZM57.5768 55.886C57.5124 55.8977 57.4504 55.9071 57.386 55.9165C56.9091 55.9587 56.4274 55.954 55.9481 55.954C55.2423 55.9587 54.534 55.9681 53.8282 55.9728C52.4356 55.9892 51.0406 55.9892 49.6479 55.9962C49.6122 55.1238 49.6098 54.2513 49.6312 53.3812C49.6646 52.0327 49.6837 50.6841 49.6956 49.3332C51.0716 49.3825 52.4451 49.4317 53.821 49.4364C54.6103 49.4364 55.4044 49.4458 56.1961 49.413C56.7422 49.3895 57.2859 49.2934 57.8272 49.1902C57.8296 50.3065 57.8606 51.4206 57.9536 52.5346C58.0227 53.3836 58.1181 54.2279 58.1873 55.0769C58.2064 55.3302 58.2231 55.5881 58.2374 55.8438C58.2064 55.8438 58.1754 55.8321 58.142 55.8321C57.9631 55.8344 57.7747 55.8555 57.5768 55.886Z" fill="white"/>
</svg>
