<svg width="64" height="64" viewBox="0 0 64 64" fill="none" xmlns="http://www.w3.org/2000/svg">
<path d="M60.8907 3.09877L60.8907 3.09883C62.4658 4.66893 63.2499 6.87461 63.2499 9.621C63.2499 13.639 61.5567 18.6045 58.5843 23.8416C55.6089 29.0841 51.3391 34.6213 46.1552 39.7877C45.6317 40.3094 45.0761 40.7862 44.5087 41.2401C44.5666 41.384 44.6196 41.5449 44.6631 41.7329L44.6632 41.7331C45.1552 43.8647 44.8061 48.2631 42.3998 52.6075C39.9856 56.9662 35.4983 61.2766 27.7075 63.2139L27.7063 63.2142C27.6098 63.2377 27.5114 63.2497 27.4135 63.2497C27.014 63.2497 26.6318 63.0535 26.4018 62.7106C26.1162 62.2855 26.127 61.7263 26.4291 61.3121L26.4292 61.3121C30.1551 56.2092 31.6592 52.149 31.1979 48.6421C30.8834 48.8198 30.5767 48.9998 30.2788 49.1835L30.2784 49.1838C30.0812 49.3049 29.8597 49.3646 29.6396 49.3646C29.3253 49.3646 29.0145 49.243 28.7792 49.009L28.779 49.0088L27.4312 47.6653L24.7585 50.3294L24.7584 50.3295C24.5207 50.5661 24.2097 50.6852 23.898 50.6852C23.5863 50.6852 23.2753 50.5661 23.0377 50.3295L23.0376 50.3294L13.5158 40.8389C13.2858 40.6102 13.1573 40.2994 13.1573 39.9758C13.1573 39.6522 13.2858 39.3416 13.5156 39.1128L60.8907 3.09877ZM60.8907 3.09877C59.3101 1.52402 57.0982 0.775905 54.4719 0.750662C51.8477 0.725441 48.7942 1.42085 45.497 2.74953C38.9019 5.40719 31.2852 10.6174 24.0923 17.7861L24.0923 17.7861C23.6056 18.2713 23.1588 18.7844 22.7319 19.3075M60.8907 3.09877L22.8124 19.605M16.1833 36.455L13.5158 39.1127L16.1833 36.455ZM16.1833 36.455L14.841 35.117L15.0174 34.94L14.8409 35.117C14.4397 34.717 14.3672 34.0934 14.6659 33.6115L14.666 33.6115C14.8668 33.2876 15.0632 32.9517 15.2573 32.607C11.768 32.2087 7.7348 33.715 2.68417 37.3787C2.47088 37.5336 2.21947 37.6109 1.96866 37.6109C1.7313 37.6109 1.49284 37.542 1.28619 37.4013C1.28604 37.4012 1.28589 37.4011 1.28574 37.401L1.42655 37.1944L16.1833 36.455ZM22.3466 19.1975C20.2099 18.6981 15.7974 19.0364 11.4373 21.4319C7.06292 23.8353 2.73522 28.3118 0.786807 36.0957L22.8124 19.605M22.3466 19.1975L22.2897 19.4409L22.3464 19.1974C22.3465 19.1974 22.3466 19.1975 22.3466 19.1975ZM22.3466 19.1975C22.4855 19.2298 22.6136 19.2667 22.7319 19.3075M22.7319 19.3075C22.6937 19.3542 22.6557 19.4011 22.6178 19.448L22.8124 19.605M22.7319 19.3075C22.7932 19.3286 22.8518 19.3508 22.9079 19.374L22.8124 19.605M24.7735 45.0166L24.9499 44.8395L24.7735 45.0166L25.7046 45.9444L23.898 47.7455L16.1029 39.9759L17.9095 38.1764L24.7735 45.0166ZM34.4969 44.2376L34.4968 44.2376L34.4373 44.2662C32.8198 45.045 31.2663 45.7929 29.8308 46.6151L17.2356 34.0625C17.898 32.9116 18.5137 31.6717 19.1335 30.4002L23.0604 22.9859C23.8754 21.7253 24.775 20.5471 25.8133 19.512C32.3607 12.9864 39.4765 8.0536 45.5853 5.39192C48.6405 4.06072 51.4317 3.30293 53.7667 3.19045C56.1027 3.07793 57.9514 3.61151 59.1698 4.8247C60.2473 5.89861 60.8124 7.49913 60.8124 9.621C60.8124 13.2111 59.1843 17.8681 56.3097 22.8684C53.439 27.8619 49.3403 33.1718 44.4342 38.0618C41.7289 40.7577 38.0765 42.5165 34.4969 44.2376ZM20.479 21.4506C20.7098 21.4506 20.9188 21.4581 21.1042 21.4709L16.4222 30.3118C12.7684 29.6026 8.79719 30.6304 4.18622 33.442C6.62954 27.2575 10.8051 24.2899 14.1005 22.8662C16.6654 21.7588 18.9965 21.4506 20.479 21.4506ZM41.0057 49.8934C39.5809 53.1935 36.6014 57.3747 30.3726 59.8176C33.1875 55.2271 34.2187 51.2724 33.5092 47.6289L42.3863 42.9582C42.4825 44.3284 42.2745 46.9536 41.0057 49.8934Z" fill="white" stroke="white" stroke-width="0.5"/>
<path d="M42.2128 13.2741C41.0617 14.4193 40.4268 15.9447 40.4268 17.5666C40.4268 19.1895 41.0617 20.7149 42.2128 21.8601C43.3998 23.0412 44.9589 23.632 46.5167 23.632C48.0744 23.632 49.6336 23.0412 50.8197 21.8601C51.9709 20.7148 52.6048 19.1894 52.6048 17.5666C52.6048 15.9448 51.9709 14.4194 50.8198 13.2742C48.4479 10.9121 44.5865 10.9122 42.2128 13.2741ZM42.2128 13.2741L42.3891 13.4513M42.2128 13.2741L42.3891 13.4513M42.3891 13.4513C41.2851 14.5497 40.6768 16.0113 40.6768 17.5666C40.6768 19.1229 41.2851 20.5845 42.3891 21.6829L50.6434 13.4513C48.3691 11.1865 44.6653 11.1865 42.3891 13.4513ZM43.9317 20.1321C45.3572 21.5504 47.6753 21.5504 49.1009 20.1321L43.9317 20.1321ZM43.9317 20.1321C43.2435 19.4465 42.8643 18.5367 42.8643 17.5666C42.8643 16.5975 43.2435 15.6876 43.9317 15.002C44.6442 14.2931 45.5797 13.9388 46.5167 13.9388C47.4537 13.9388 48.3884 14.2931 49.101 15.0021C49.7889 15.6876 50.1673 16.5974 50.1673 17.5666C50.1673 18.5368 49.7889 19.4465 49.101 20.132L43.9317 20.1321Z" fill="white" stroke="white" stroke-width="0.5"/>
<path d="M15.4039 46.4948L15.404 46.4946C15.8807 46.0202 16.652 46.0196 17.1273 46.4973C17.1274 46.4973 17.1274 46.4973 17.1274 46.4973L15.4039 46.4948ZM15.4039 46.4948L5.72112 56.1453L5.72108 56.1454C5.24502 56.6201 5.24256 57.3913 5.71855 57.8687L15.4039 46.4948Z" fill="white" stroke="white" stroke-width="0.5"/>
<path d="M7.40611 51.2433L7.40589 51.2435C7.16813 51.4799 6.85626 51.5991 6.54557 51.5991C6.23319 51.5991 5.92063 51.4799 5.68252 51.2407L5.68249 51.2407C5.2078 50.7637 5.20877 49.9924 5.68499 49.5174L5.68505 49.5174L12.0614 43.1619C12.0614 43.1618 12.0614 43.1618 12.0615 43.1618C12.5385 42.686 13.3099 42.687 13.785 43.1644L7.40611 51.2433ZM7.40611 51.2433L13.7824 44.8878L13.7825 44.8877M7.40611 51.2433L13.7825 44.8877M13.7825 44.8877C14.2587 44.4126 14.2597 43.6415 13.785 43.1645L13.7825 44.8877Z" fill="white" stroke="white" stroke-width="0.5"/>
<path d="M12.3706 56.1812L12.3705 56.1813C11.8943 56.6562 11.8933 57.4275 12.368 57.9045L12.3681 57.9045C12.6062 58.1437 12.9186 58.2629 13.2311 58.2629C13.5417 58.2629 13.8537 58.1437 14.0914 57.9072L14.0915 57.9071L20.468 51.5516L20.468 51.5515C20.9442 51.0764 20.9452 50.3053 20.4705 49.8283C19.9955 49.3508 19.2239 49.3498 18.7468 49.8257L12.3706 56.1812Z" fill="white" stroke="white" stroke-width="0.5"/>
</svg>
