<svg width="289" height="50" viewBox="0 0 289 50" fill="none" xmlns="http://www.w3.org/2000/svg">
<path d="M34.4892 31.212C33.7494 28.9184 33.0269 26.6681 32.2763 24.3572L35.2376 22.1805C36.3819 25.6987 37.4851 29.0915 38.6056 32.5428L25.6031 42.0006C25.8302 43.2037 26.0509 44.3635 26.2953 45.6487L39.7066 35.9118C40.1025 37.1235 40.4637 38.2292 40.8466 39.3976L26.2737 50.0001C25.4668 49.4202 24.7227 48.8555 23.9462 48.3405C23.7101 48.2012 23.5113 48.0068 23.3666 47.774C23.222 47.5411 23.1358 47.2767 23.1155 47.0033C23.0204 46.1031 22.8322 45.2138 22.6613 44.1904L20.4073 45.7526L17.459 43.5888L34.4935 31.2056" fill="#23667B"/>
<path d="M0 30.9565C0.279042 30.091 0.588367 29.3207 0.774395 28.5201C0.849654 28.1625 1.01346 27.8295 1.2508 27.5516C1.48815 27.2737 1.79142 27.0599 2.13283 26.9298C2.87045 26.5965 3.56265 26.1703 4.39761 25.7159L2.2345 24.0649L3.34201 20.6159L20.3852 32.9948L26.2256 28.7711L29.1631 30.9111L20.3852 37.2921L7.39785 27.8515L4.09261 29.6301L17.5039 39.3888L14.5556 41.5439L0 30.9565Z" fill="#23667B"/>
<path d="M10.2866 21.4444C11.9414 16.3422 13.5832 11.2746 15.2467 6.15081L12.5255 3.56942C10.8015 8.87067 9.11639 14.0637 7.38589 19.3498L4.44189 17.2077C5.82412 12.9818 9.59443 1.29746 9.90592 0.410313C9.95786 0.317004 10.0309 0.237116 10.1191 0.177012C10.2074 0.116907 10.3084 0.0782463 10.4143 0.0641092C11.3833 0.0294888 12.3611 0.0316526 13.3193 0.0619454C13.5431 0.0941053 13.7503 0.198144 13.9099 0.358382C14.7232 1.09839 15.517 1.87302 16.3736 2.66929C16.5899 1.9877 16.8063 1.37103 16.9966 0.747862C17.187 0.124695 17.2692 0.046799 17.8813 0.0446352C18.6644 0.0446352 19.4474 0.0446352 20.2305 0.0446352C20.4386 0.0631894 20.6453 0.0957193 20.8491 0.142005C18.6838 6.81509 16.5402 13.4146 14.3706 20.1028L20.1829 24.3849L19.0667 27.8253L10.2866 21.4444Z" fill="#23667B"/>
<path d="M22.2233 6.95588L38.2953 6.87366L39.8938 3.48086L23.3049 3.55226C23.6835 2.3795 24.0404 1.28247 24.4167 0.0837345C28.8684 0.0620968 41.1398 -0.0179628 42.0721 0.0036749C42.1776 0.0232062 42.2769 0.0675266 42.3619 0.132985C42.4469 0.198443 42.5151 0.283165 42.561 0.380172C42.8955 1.28751 43.1991 2.20568 43.4716 3.13466C43.5116 3.35562 43.4782 3.58362 43.3764 3.78379C42.9287 4.78994 42.4528 5.78311 41.9553 6.84769C42.6713 6.84769 43.3224 6.865 43.9735 6.84769C44.6246 6.83038 44.7241 6.88664 44.9188 7.46869C45.1653 8.21087 45.4141 8.95304 45.6499 9.70171C45.6981 9.90475 45.7328 10.1108 45.7537 10.3184L24.7715 10.4179L22.5262 17.2771L18.9116 17.2987L22.2147 6.95588" fill="#23667B"/>
<path d="M39.6157 13.9641L44.6947 29.21L48.4152 29.6709C46.6566 24.3805 44.9348 19.2047 43.1783 13.9273L46.8188 13.9013C48.227 18.1272 52.1271 29.7661 52.3975 30.6576C52.4116 30.764 52.4004 30.8721 52.3647 30.9733C52.329 31.0745 52.2698 31.1658 52.192 31.2396C51.4349 31.8412 50.654 32.4167 49.8602 32.9707C49.6615 33.0767 49.434 33.1162 49.2113 33.0832C48.1167 32.9685 47.0243 32.8279 45.8563 32.6872C46.0726 33.3666 46.2673 33.9855 46.4944 34.6022C46.7215 35.2188 46.6912 35.3292 46.2002 35.684C45.5707 36.1514 44.9434 36.6188 44.3075 37.0775C44.1289 37.1845 43.9439 37.2806 43.7537 37.3653C41.5365 30.7139 39.3431 24.1316 37.1216 17.4586H29.9011C29.5291 16.3399 29.1635 15.245 28.7568 14.029L39.6157 13.9641Z" fill="#E93631"/>
<path d="M75.6683 1.71551C82.3495 1.71551 86.2138 5.0377 86.2138 10.7894C86.2138 16.774 82.3339 20.2127 75.6683 20.2127H68.6225V28.751H65.5186V1.71551H75.6683ZM68.6069 17.2397H75.5907C80.4483 17.2397 83.2729 15.0741 83.2729 10.8671C83.2729 6.77642 80.4483 4.65736 75.5907 4.65736H68.6225L68.6069 17.2397Z" fill="#23667B"/>
<path d="M96.3652 4.68842V13.5683H109.991V16.5412H96.3652V25.8091H112.118V28.7432H93.2769V1.71551H111.613V4.68842H96.3652Z" fill="#23667B"/>
<path d="M137.987 28.7432L121.77 7.04034V28.7432H118.681V1.71551H121.886L138.104 23.4572V1.71551H141.153V28.7432H137.987Z" fill="#23667B"/>
<path d="M160.04 4.68842V28.7432H156.952V4.68842H148.145V1.71551H168.879V4.68842H160.04Z" fill="#23667B"/>
<path d="M176.281 21.9126L173.271 28.7432H169.988L182.109 1.71551H185.314L197.435 28.7432H194.075L191.064 21.9126H176.281ZM183.614 5.224L177.593 18.9397H189.714L183.614 5.224Z" fill="#23667B"/>
<path d="M224.166 15.5391V25.3737C221.297 27.6234 217.77 28.872 214.125 28.9288C206.288 28.9288 200.033 22.8666 200.033 15.2597C200.033 7.65283 206.326 1.66823 214.28 1.66823C217.936 1.67465 221.47 2.98779 224.244 5.37077L222.467 7.69941C220.205 5.70441 217.295 4.60079 214.28 4.59456C212.831 4.52699 211.384 4.75407 210.025 5.26209C208.667 5.77012 207.425 6.54851 206.376 7.5502C205.327 8.55189 204.492 9.75604 203.921 11.0898C203.351 12.4236 203.057 13.8594 203.057 15.3102C203.057 16.761 203.351 18.1967 203.921 19.5305C204.492 20.8643 205.327 22.0684 206.376 23.0701C207.425 24.0718 208.667 24.8502 210.025 25.3582C211.384 25.8663 212.831 26.0933 214.28 26.0258C216.823 25.9836 219.296 25.1895 221.388 23.7437V15.5391H224.166Z" fill="#23667B"/>
<path d="M259.514 15.2292C259.514 22.8361 253.26 28.8983 245.384 28.8983C237.508 28.8983 231.214 22.8361 231.214 15.2292C231.214 7.62236 237.469 1.63778 245.384 1.63778C253.299 1.63778 259.514 7.62236 259.514 15.2292ZM234.342 15.2292C234.271 17.4202 234.855 19.5825 236.019 21.4394C237.184 23.2964 238.876 24.7635 240.879 25.653C242.881 26.5426 245.104 26.8141 247.262 26.4328C249.42 26.0515 251.415 25.0347 252.992 23.5126C254.569 21.9906 255.657 20.0324 256.115 17.8887C256.573 15.7451 256.381 13.5134 255.564 11.4794C254.747 9.44539 253.342 7.70153 251.528 6.47098C249.714 5.24043 247.575 4.57919 245.384 4.57186C242.508 4.52406 239.73 5.61919 237.66 7.61706C235.59 9.61493 234.397 12.3524 234.342 15.2292Z" fill="#23667B"/>
<path d="M285.834 28.7432L269.616 7.04034V28.7432H266.536V1.71551H269.74L285.951 23.4572V1.71551H289V28.7432H285.834Z" fill="#23667B"/>
<path d="M66.6282 40.293V43.4832H71.5401V44.5544H66.6282V47.8921H72.3006V48.9477H65.5186V39.2218H72.1221V40.293H66.6282Z" fill="#E93631"/>
<path d="M77.7958 38.6315H76.7095V48.9473H77.7958V38.6315Z" fill="#E93631"/>
<path d="M85.5628 44.3371H82.2959V45.145H85.5628V44.3371Z" fill="#E93631"/>
<path d="M98.963 48.9477L98.9475 40.9295L95.4013 47.9231H94.734L91.2033 40.9295V48.9477H90.1479V39.2218H91.5292L95.0832 46.2232L98.6294 39.2218H99.9873V48.9477H98.963Z" fill="#E93631"/>
<path d="M111.302 45.7105H105.326C105.386 46.3651 105.694 46.9719 106.188 47.4054C106.682 47.8388 107.324 48.0657 107.98 48.0392C108.407 48.0501 108.831 47.973 109.226 47.8127C109.621 47.6524 109.979 47.4125 110.277 47.1077L110.875 47.7442C110.498 48.1462 110.041 48.4635 109.532 48.6749C109.024 48.8864 108.476 48.9872 107.926 48.9706C106.975 48.927 106.077 48.5183 105.419 47.8294C104.761 47.1406 104.394 46.2246 104.394 45.272C104.394 44.3193 104.761 43.4034 105.419 42.7145C106.077 42.0256 106.975 41.6169 107.926 41.5733C110.254 41.5733 111.457 43.2034 111.348 45.6872M110.378 44.7946C110.38 44.4793 110.317 44.1671 110.192 43.8775C110.067 43.588 109.884 43.3274 109.654 43.1123C109.423 42.8972 109.151 42.7321 108.853 42.6275C108.556 42.523 108.24 42.4812 107.926 42.5048C107.286 42.479 106.662 42.7038 106.185 43.1314C105.708 43.559 105.417 44.1556 105.373 44.7946H110.378Z" fill="#E93631"/>
<path d="M121.133 42.6834L120.535 43.4596C119.946 42.904 119.164 42.6004 118.355 42.6136C117.634 42.6136 116.944 42.8998 116.434 43.4093C115.925 43.9188 115.639 44.6098 115.639 45.3303C115.639 46.0508 115.925 46.7418 116.434 47.2513C116.944 47.7608 117.634 48.047 118.355 48.047C118.781 48.0607 119.204 47.9793 119.595 47.8088C119.985 47.6383 120.333 47.3829 120.613 47.0613L121.234 47.7288C120.87 48.1488 120.415 48.4809 119.904 48.7C119.394 48.9191 118.84 49.0196 118.285 48.994C117.334 48.9504 116.436 48.5417 115.778 47.8528C115.12 47.164 114.753 46.248 114.753 45.2954C114.753 44.3427 115.12 43.4268 115.778 42.7379C116.436 42.0491 117.334 41.6403 118.285 41.5967C118.806 41.57 119.326 41.653 119.812 41.8402C120.299 42.0274 120.741 42.3146 121.109 42.6834" fill="#E93631"/>
<path d="M132.253 44.4298V48.9473H131.144V44.7247C131.169 44.4469 131.133 44.1669 131.037 43.9048C130.942 43.6426 130.79 43.4048 130.592 43.2083C130.394 43.0118 130.155 42.8614 129.892 42.768C129.63 42.6745 129.35 42.6403 129.072 42.6678C128.726 42.6592 128.383 42.7245 128.065 42.8594C127.746 42.9942 127.46 43.1955 127.226 43.4497C126.992 43.704 126.814 44.0053 126.706 44.3336C126.597 44.6619 126.56 45.0096 126.597 45.3535V48.9473H125.51V38.6315H126.597V43.2887C126.839 42.7477 127.243 42.2952 127.753 41.9935C128.263 41.6918 128.854 41.5558 129.444 41.6044C129.823 41.5708 130.204 41.621 130.562 41.7513C130.919 41.8817 131.243 42.089 131.511 42.3586C131.779 42.6283 131.984 42.9536 132.113 43.3115C132.241 43.6694 132.289 44.0512 132.253 44.4298Z" fill="#E93631"/>
<path d="M149.027 40.1218L148.554 41.162C147.755 40.639 146.824 40.3537 145.869 40.3392C144.62 40.3392 143.797 40.8127 143.797 41.6355C143.797 44.1349 149.276 42.8308 149.229 46.3626C149.229 47.9926 147.801 49.0328 145.714 49.0328C144.33 49.0188 143.001 48.4872 141.989 47.5424L142.494 46.5411C143.36 47.3931 144.515 47.8866 145.729 47.9228C147.134 47.9228 148.011 47.3484 148.011 46.4169C148.011 43.8554 142.579 45.2215 142.579 41.7596C142.579 40.2072 143.929 39.2447 145.939 39.2447C147.039 39.245 148.116 39.5602 149.043 40.1529" fill="#E93631"/>
<path d="M160.304 45.2837C160.31 46.0203 160.097 46.7422 159.693 47.3577C159.288 47.9732 158.71 48.4546 158.031 48.7408C157.352 49.027 156.604 49.105 155.881 48.9651C155.158 48.8252 154.493 48.4735 153.97 47.9548C153.447 47.4361 153.09 46.7736 152.944 46.0516C152.798 45.3295 152.87 44.5804 153.15 43.8992C153.43 43.218 153.907 42.6354 154.519 42.2255C155.131 41.8156 155.85 41.5967 156.587 41.5967C157.078 41.5737 157.569 41.6532 158.029 41.83C158.488 42.0067 158.906 42.277 159.255 42.6236C159.604 42.9702 159.878 43.3856 160.059 43.8435C160.239 44.3014 160.323 44.7918 160.304 45.2837ZM153.964 45.2837C153.979 45.8009 154.147 46.3021 154.445 46.7246C154.744 47.1472 155.16 47.4723 155.642 47.6594C156.125 47.8465 156.651 47.8872 157.157 47.7764C157.662 47.6657 158.123 47.4083 158.483 47.0367C158.843 46.665 159.085 46.1955 159.18 45.6868C159.274 45.1781 159.217 44.6528 159.014 44.1766C158.812 43.7004 158.474 43.2945 158.042 43.0096C157.61 42.7247 157.104 42.5734 156.587 42.5747C156.233 42.5667 155.881 42.6319 155.554 42.7664C155.226 42.9008 154.93 43.1015 154.684 43.3559C154.437 43.6103 154.246 43.9128 154.123 44.2446C153.999 44.5763 153.945 44.9301 153.964 45.2837Z" fill="#E93631"/>
<path d="M165.591 38.6315H164.505V48.9473H165.591V38.6315Z" fill="#E93631"/>
<path d="M176.869 48.9479H175.782V47.2946C175.555 47.8329 175.165 48.2864 174.666 48.5914C174.168 48.8963 173.587 49.0373 173.004 48.9945C172.629 49.0192 172.252 48.9615 171.901 48.8255C171.551 48.6895 171.234 48.4784 170.973 48.2071C170.712 47.9358 170.513 47.6108 170.391 47.2547C170.269 46.8987 170.226 46.5202 170.265 46.1458V41.6205H171.351V45.8509C171.327 46.1235 171.362 46.3982 171.455 46.6558C171.547 46.9133 171.696 47.1473 171.889 47.3412C172.082 47.5351 172.315 47.6843 172.572 47.7782C172.83 47.8721 173.104 47.9084 173.377 47.8845C174.929 47.8845 175.782 46.759 175.782 45.1988V41.5972H176.869V48.9479Z" fill="#E93631"/>
<path d="M185.517 48.4505C185.032 48.7935 184.458 48.9877 183.864 49.0094C182.794 49.0094 182.002 48.3652 182.002 46.9214V42.7376H180.947V41.8605H182.002V39.9277H183.073V41.8605H185.401V42.7531H183.073V46.7429C183.073 47.6355 183.422 47.9693 184.043 47.9693C184.461 47.9544 184.867 47.8226 185.215 47.5889L185.517 48.4505Z" fill="#E93631"/>
<path d="M190.613 39.5243C190.599 39.6602 190.547 39.7892 190.461 39.8959C190.376 40.0025 190.262 40.0821 190.132 40.125C190.002 40.1679 189.863 40.1723 189.731 40.1377C189.599 40.103 189.48 40.0308 189.388 39.9298C189.296 39.8288 189.235 39.7033 189.213 39.5685C189.191 39.4337 189.209 39.2954 189.264 39.1704C189.319 39.0453 189.409 38.9389 189.523 38.8639C189.637 38.789 189.77 38.7487 189.907 38.7481C190.005 38.7488 190.103 38.7698 190.193 38.81C190.283 38.8502 190.363 38.9086 190.43 38.9815C190.496 39.0544 190.547 39.1403 190.578 39.2337C190.61 39.3271 190.621 39.4261 190.613 39.5243ZM189.379 41.62H190.45V48.9475H189.379V41.62Z" fill="#E93631"/>
<path d="M201.997 45.2837C202.001 46.0185 201.788 46.7381 201.383 47.3513C200.978 47.9646 200.401 48.4437 199.723 48.7281C199.046 49.0125 198.299 49.0893 197.578 48.9488C196.857 48.8083 196.194 48.4568 195.673 47.9388C195.152 47.4209 194.797 46.7598 194.652 46.0395C194.507 45.3191 194.579 44.5719 194.859 43.8926C195.139 43.2132 195.614 42.6324 196.225 42.2237C196.835 41.8149 197.553 41.5967 198.288 41.5967C198.779 41.5737 199.27 41.6531 199.728 41.83C200.187 42.0068 200.604 42.2772 200.953 42.6239C201.302 42.9706 201.575 43.3862 201.755 43.8441C201.934 44.302 202.017 44.7922 201.997 45.2837ZM195.665 45.2837C195.68 45.8009 195.848 46.3021 196.146 46.7247C196.445 47.1472 196.861 47.4724 197.343 47.6594C197.825 47.8465 198.352 47.8872 198.857 47.7765C199.363 47.6657 199.824 47.4084 200.184 47.0367C200.544 46.665 200.786 46.1955 200.881 45.6868C200.975 45.1781 200.918 44.6528 200.715 44.1766C200.513 43.7005 200.175 43.2945 199.743 43.0096C199.311 42.7247 198.805 42.5734 198.288 42.5747C197.934 42.5667 197.582 42.632 197.255 42.7664C196.927 42.9008 196.631 43.1015 196.385 43.3559C196.138 43.6103 195.947 43.9129 195.823 44.2446C195.7 44.5764 195.646 44.9301 195.665 45.2837Z" fill="#E93631"/>
<path d="M212.829 44.4307V48.9482H211.743V44.7256C211.768 44.4478 211.732 44.1678 211.637 43.9057C211.541 43.6435 211.389 43.4057 211.191 43.2092C210.993 43.0127 210.755 42.8623 210.492 42.7689C210.229 42.6754 209.949 42.6412 209.671 42.6687C209.356 42.6583 209.043 42.7105 208.748 42.8223C208.454 42.934 208.184 43.103 207.956 43.3196C207.727 43.5361 207.543 43.7959 207.416 44.0839C207.288 44.3719 207.218 44.6823 207.211 44.9973V48.9249H206.133V41.5975H207.211V43.2275C207.463 42.6978 207.869 42.2565 208.376 41.9615C208.883 41.6665 209.467 41.5315 210.051 41.5742C210.43 41.545 210.81 41.5992 211.165 41.733C211.52 41.8669 211.841 42.077 212.106 42.3487C212.371 42.6204 212.573 42.947 212.698 43.3054C212.823 43.6638 212.868 44.0453 212.829 44.4229" fill="#E93631"/>
<path d="M221.753 42.2489L221.334 43.1105C220.739 42.7347 220.052 42.528 219.348 42.5128C218.525 42.5128 217.905 42.8078 217.905 43.4831C217.905 45.1131 221.986 44.2593 221.986 46.9062C221.986 48.35 220.714 48.9942 219.309 48.9942C218.276 49.0144 217.274 48.646 216.5 47.9619L216.919 47.1468C217.59 47.7388 218.453 48.067 219.348 48.0705C220.209 48.0705 220.9 47.7523 220.9 47.0304C220.946 45.2684 216.841 46.1688 216.857 43.5685C216.857 42.1636 218.067 41.5814 219.402 41.5814C220.227 41.5717 221.036 41.8038 221.73 42.2489" fill="#E93631"/>
<path d="M235.831 39.2218C238.236 39.2218 239.625 40.4171 239.625 42.4896C239.625 44.5621 238.236 45.8739 235.831 45.8739H233.293V48.9788H232.176V39.2218H235.831ZM233.293 44.8105H235.792C237.546 44.8105 238.562 44.0343 238.562 42.4819C238.562 40.9295 237.546 40.2619 235.792 40.2619H233.293V44.8105Z" fill="#E93631"/>
<path d="M245.19 48.9476L242.288 41.6279H243.437L245.772 47.8221L248.092 41.6279H249.194L246.315 48.9476H245.19Z" fill="#E93631"/>
<path d="M256.47 48.4505C255.985 48.7943 255.411 48.9886 254.817 49.0094C253.746 49.0094 252.955 48.3652 252.955 46.9214V42.7376H251.899V41.8605H252.955V39.9277H254.026V41.8605H256.354V42.7531H254.026V46.7429C254.026 47.6355 254.375 47.9693 255.003 47.9693C255.419 47.953 255.822 47.8213 256.167 47.5889L256.47 48.4505Z" fill="#E93631"/>
<path d="M261.067 48.342C261.056 48.4731 261.008 48.5982 260.927 48.702C260.846 48.8059 260.737 48.8839 260.613 48.9265C260.488 48.9691 260.354 48.9745 260.227 48.942C260.1 48.9095 259.984 48.8405 259.896 48.7435C259.807 48.6465 259.749 48.5257 259.727 48.3959C259.706 48.2662 259.724 48.133 259.777 48.0129C259.831 47.8928 259.918 47.7909 260.029 47.7198C260.139 47.6486 260.268 47.6113 260.399 47.6124C260.492 47.6143 260.583 47.6349 260.667 47.6731C260.751 47.7112 260.827 47.766 260.889 47.8342C260.952 47.9025 261 47.9827 261.03 48.0699C261.061 48.1572 261.073 48.2498 261.067 48.342Z" fill="#E93631"/>
<path d="M270.857 47.8925V48.9482H265.479V39.2145H266.597V47.8925H270.857Z" fill="#E93631"/>
<path d="M278.517 48.4505C278.032 48.7935 277.457 48.9877 276.864 49.0094C275.793 49.0094 275.002 48.3652 275.002 46.9214V42.7376H273.946V41.8605H275.033V39.9277H276.103V41.8605H278.431V42.7531H276.103V46.7429C276.103 47.6355 276.453 47.9693 277.081 47.9693C277.497 47.953 277.9 47.8213 278.245 47.5889L278.517 48.4505Z" fill="#E93631"/>
<path d="M289 48.9479H287.913V47.3955C287.643 47.9098 287.231 48.3363 286.726 48.625C286.222 48.9137 285.646 49.0526 285.065 49.0255C284.108 48.9818 283.204 48.5705 282.542 47.8773C281.88 47.1841 281.511 46.2623 281.511 45.3036C281.511 44.3448 281.88 43.423 282.542 42.7298C283.204 42.0366 284.108 41.6254 285.065 41.5816C285.648 41.556 286.225 41.6972 286.729 41.9887C287.234 42.2803 287.645 42.71 287.913 43.2272V38.6476H289V48.9479ZM287.913 45.3074C287.898 44.7872 287.73 44.283 287.43 43.8579C287.129 43.4328 286.71 43.1056 286.225 42.9174C285.74 42.7291 285.21 42.6881 284.702 42.7995C284.194 42.9108 283.73 43.1696 283.368 43.5435C283.006 43.9173 282.762 44.3896 282.667 44.9014C282.572 45.4131 282.63 45.9415 282.833 46.4205C283.037 46.8995 283.377 47.3078 283.811 47.5945C284.245 47.8811 284.755 48.0333 285.275 48.032C285.631 48.0388 285.984 47.9724 286.313 47.8367C286.642 47.7011 286.939 47.4993 287.187 47.2437C287.434 46.9881 287.626 46.6843 287.751 46.3512C287.876 46.0181 287.931 45.6628 287.913 45.3074Z" fill="#E93631"/>
</svg>
