<svg width="222" height="38" viewBox="0 0 222 38" fill="none" xmlns="http://www.w3.org/2000/svg">
<path d="M26.4932 23.7212C25.9249 21.978 25.3699 20.2678 24.7933 18.5115L27.0681 16.8572C27.9471 19.5311 28.7945 22.1096 29.6552 24.7325L19.6672 31.9205C19.8416 32.8348 20.0111 33.7163 20.1989 34.6931L30.501 27.293C30.8051 28.2139 31.0826 29.0542 31.3767 29.9422L20.1823 38.0001C19.5625 37.5594 18.9909 37.1302 18.3944 36.7388C18.213 36.6329 18.0603 36.4852 17.9492 36.3082C17.8381 36.1312 17.7719 35.9303 17.7563 35.7225C17.6832 35.0384 17.5386 34.3625 17.4074 33.5847L15.6759 34.772L13.4111 33.1275L26.4965 23.7162" fill="#23667B"/>
<path d="M0 23.527C0.21435 22.8692 0.451964 22.2837 0.594864 21.6753C0.652675 21.4035 0.778508 21.1504 0.960826 20.9392C1.14314 20.728 1.37611 20.5655 1.63837 20.4666C2.20499 20.2134 2.73671 19.8894 3.3781 19.5441L1.71647 18.2893L2.56722 15.668L15.6592 25.076L20.1456 21.866L22.4021 23.4924L15.6592 28.342L5.68278 21.1671L3.14381 22.5189L13.4459 29.9355L11.1811 31.5733L0 23.527Z" fill="#23667B"/>
<path d="M7.90184 16.2977C9.17299 12.4201 10.4342 8.56872 11.712 4.67462L9.62163 2.71276C8.29731 6.74171 7.0029 10.6884 5.67359 14.7059L3.41211 13.0778C4.47389 9.8662 7.37012 0.986073 7.60939 0.311841C7.64929 0.240926 7.70537 0.180211 7.77316 0.134532C7.84095 0.0888524 7.91858 0.0594704 7.99987 0.0487262C8.74429 0.0224147 9.49534 0.0240592 10.2314 0.0470817C10.4033 0.0715232 10.5625 0.150592 10.6851 0.272374C11.3098 0.834782 11.9197 1.4235 12.5777 2.02867C12.7438 1.51066 12.91 1.04199 13.0562 0.568378C13.2024 0.0947713 13.2656 0.0355704 13.7358 0.033926C14.3373 0.033926 14.9388 0.033926 15.5404 0.033926C15.7003 0.0480271 15.859 0.0727499 16.0156 0.107927C14.3523 5.17947 12.7056 10.1951 11.039 15.2781L15.5038 18.5326L14.6464 21.1473L7.90184 16.2977Z" fill="#23667B"/>
<path d="M17.0713 5.28647L29.4172 5.22398L30.6452 2.64545L17.9021 2.69972C18.1929 1.80842 18.4671 0.974674 18.7562 0.0636382C22.1758 0.0471936 31.6023 -0.0136518 32.3184 0.00279292C32.3995 0.0176367 32.4758 0.0513202 32.541 0.101068C32.6063 0.150817 32.6587 0.215206 32.694 0.28893C32.951 0.978511 33.1841 1.67631 33.3935 2.38234C33.4242 2.55027 33.3986 2.72355 33.3204 2.87568C32.9764 3.64036 32.6109 4.39517 32.2287 5.20425C32.7787 5.20425 33.2789 5.2174 33.779 5.20425C34.2792 5.19109 34.3556 5.23385 34.5051 5.67621C34.6946 6.24026 34.8857 6.80431 35.0668 7.3733C35.1038 7.52761 35.1304 7.68418 35.1465 7.84197L19.0287 7.91762L17.3039 13.1306L14.5273 13.147L17.0647 5.28647" fill="#23667B"/>
<path d="M30.4312 10.6127L34.3327 22.1996L37.1908 22.5499C35.8398 18.5291 34.5172 14.5956 33.1679 10.5847L35.9645 10.565C37.0462 13.7766 40.0421 22.6222 40.2498 23.2998C40.2607 23.3806 40.252 23.4628 40.2246 23.5397C40.1971 23.6166 40.1517 23.686 40.092 23.7421C39.5104 24.1993 38.9105 24.6367 38.3007 25.0577C38.1481 25.1383 37.9734 25.1683 37.8022 25.1432C36.9614 25.056 36.1223 24.9492 35.225 24.8423C35.3912 25.3586 35.5408 25.8289 35.7152 26.2976C35.8897 26.7663 35.8664 26.8502 35.4892 27.1199C35.0057 27.4751 34.5238 27.8303 34.0353 28.1789C33.8981 28.2602 33.7561 28.3333 33.6099 28.3976C31.9068 23.3425 30.2219 18.34 28.5154 13.2685H22.9688C22.683 12.4183 22.4022 11.5862 22.0898 10.662L30.4312 10.6127Z" fill="#E93631"/>
<path d="M58.1258 1.30379C63.258 1.30379 66.2265 3.82865 66.2265 8.19997C66.2265 12.7483 63.2461 15.3616 58.1258 15.3616H52.7134V21.8507H50.3291V1.30379H58.1258ZM52.7015 13.1022H58.0662C61.7976 13.1022 63.9674 11.4563 63.9674 8.25896C63.9674 5.15008 61.7976 3.53959 58.0662 3.53959H52.7134L52.7015 13.1022Z" fill="#23667B"/>
<path d="M74.0247 3.5632V10.3119H84.4919V12.5713H74.0247V19.6149H86.1251V21.8448H71.6523V1.30379H85.7377V3.5632H74.0247Z" fill="#23667B"/>
<path d="M105.997 21.8448L93.5394 5.35066V21.8448H91.167V1.30379H93.6288L106.087 17.8275V1.30379H108.429V21.8448H105.997Z" fill="#23667B"/>
<path d="M122.938 3.5632V21.8448H120.565V3.5632H113.8V1.30379H129.727V3.5632H122.938Z" fill="#23667B"/>
<path d="M135.413 16.6535L133.101 21.8448H130.579L139.89 1.30379H142.352L151.662 21.8448H149.081L146.769 16.6535H135.413ZM141.046 3.97024L136.421 14.3941H145.731L141.046 3.97024Z" fill="#23667B"/>
<path d="M172.197 11.8097V19.284C169.993 20.9938 167.284 21.9427 164.483 21.9859C158.463 21.9859 153.659 17.3786 153.659 11.5974C153.659 5.81613 158.493 1.26784 164.603 1.26784C167.411 1.27272 170.126 2.27071 172.256 4.08177L170.891 5.85154C169.154 4.33534 166.919 3.49659 164.603 3.49185C163.49 3.44049 162.378 3.61308 161.334 3.99917C160.291 4.38527 159.337 4.97685 158.531 5.73813C157.725 6.49942 157.084 7.41458 156.645 8.42826C156.207 9.44195 155.981 10.5331 155.981 11.6357C155.981 12.7383 156.207 13.8294 156.645 14.8431C157.084 15.8568 157.725 16.772 158.531 17.5333C159.337 18.2946 160.291 18.8861 161.334 19.2722C162.378 19.6583 163.49 19.8309 164.603 19.7796C166.556 19.7475 168.456 19.144 170.063 18.0452V11.8097H172.197Z" fill="#23667B"/>
<path d="M199.35 11.5742C199.35 17.3554 194.546 21.9627 188.496 21.9627C182.446 21.9627 177.611 17.3554 177.611 11.5742C177.611 5.79297 182.416 1.24469 188.496 1.24469C194.576 1.24469 199.35 5.79297 199.35 11.5742ZM180.014 11.5742C179.959 13.2393 180.408 14.8827 181.302 16.2939C182.197 17.7052 183.497 18.8202 185.035 19.4963C186.574 20.1723 188.281 20.3787 189.939 20.0889C191.596 19.7991 193.129 19.0264 194.34 17.8696C195.552 16.7128 196.387 15.2246 196.739 13.5954C197.091 11.9662 196.943 10.2702 196.316 8.72433C195.688 7.17847 194.609 5.85314 193.216 4.91792C191.822 3.98271 190.179 3.48016 188.496 3.47459C186.286 3.43826 184.153 4.27056 182.563 5.78894C180.973 7.30733 180.056 9.38783 180.014 11.5742Z" fill="#23667B"/>
<path d="M219.568 21.8448L207.11 5.35066V21.8448H204.744V1.30379H207.205L219.658 17.8275V1.30379H222V21.8448H219.568Z" fill="#23667B"/>
<path d="M51.1815 30.6226V33.0472H54.9547V33.8613H51.1815V36.3979H55.5388V37.2002H50.3291V29.8085H55.4017V30.6226H51.1815Z" fill="#E93631"/>
<path d="M59.7603 29.3599H58.9258V37.2H59.7603V29.3599Z" fill="#E93631"/>
<path d="M65.7263 33.6962H63.2168V34.3102H65.7263V33.6962Z" fill="#E93631"/>
<path d="M76.0205 37.2002L76.0086 31.1064L73.2845 36.4215H72.7718L70.0597 31.1064V37.2002H69.249V29.8085H70.31L73.0401 35.1296L75.7642 29.8085H76.8073V37.2002H76.0205Z" fill="#E93631"/>
<path d="M85.4985 34.74H80.9087C80.9541 35.2375 81.1911 35.6987 81.5706 36.0281C81.95 36.3575 82.4429 36.53 82.9472 36.5098C83.2747 36.518 83.6004 36.4594 83.9039 36.3376C84.2075 36.2159 84.4825 36.0335 84.7116 35.8018L85.1706 36.2856C84.8815 36.5911 84.53 36.8322 84.1395 36.9929C83.7489 37.1536 83.3283 37.2302 82.9055 37.2176C82.1747 37.1845 81.485 36.8739 80.9797 36.3504C80.4744 35.8268 80.1924 35.1307 80.1924 34.4067C80.1924 33.6827 80.4744 32.9865 80.9797 32.463C81.485 31.9395 82.1747 31.6288 82.9055 31.5957C84.6938 31.5957 85.6177 32.8345 85.5342 34.7223M84.7891 34.0439C84.7906 33.8043 84.742 33.567 84.6462 33.3469C84.5504 33.1269 84.4096 32.9288 84.2326 32.7653C84.0556 32.6018 83.8463 32.4764 83.6179 32.3969C83.3895 32.3174 83.147 32.2857 82.9055 32.3036C82.4141 32.284 81.9343 32.4549 81.5681 32.7798C81.2019 33.1048 80.9782 33.5583 80.9444 34.0439H84.7891Z" fill="#E93631"/>
<path d="M93.0502 32.4394L92.5912 33.0293C92.1389 32.607 91.5379 32.3763 90.9162 32.3863C90.3629 32.3863 89.8322 32.6038 89.441 32.991C89.0497 33.3782 88.8299 33.9034 88.8299 34.451C88.8299 34.9986 89.0497 35.5238 89.441 35.911C89.8322 36.2982 90.3629 36.5157 90.9162 36.5157C91.2434 36.5261 91.5688 36.4642 91.8688 36.3346C92.1688 36.205 92.436 36.011 92.6508 35.7665L93.1277 36.2738C92.848 36.5931 92.4989 36.8454 92.1066 37.012C91.7143 37.1785 91.289 37.2549 90.8626 37.2354C90.1318 37.2023 89.442 36.8917 88.9367 36.3681C88.4314 35.8446 88.1494 35.1485 88.1494 34.4245C88.1494 33.7005 88.4314 33.0043 88.9367 32.4808C89.442 31.9573 90.1318 31.6466 90.8626 31.6135C91.2625 31.5932 91.6622 31.6562 92.036 31.7985C92.4097 31.9408 92.7492 32.1591 93.0323 32.4394" fill="#E93631"/>
<path d="M101.593 33.7666V37.2H100.74V33.9908C100.76 33.7797 100.732 33.5669 100.658 33.3677C100.585 33.1684 100.468 32.9877 100.316 32.8383C100.164 32.689 99.9807 32.5747 99.7789 32.5037C99.577 32.4327 99.3618 32.4067 99.1486 32.4275C98.8831 32.421 98.6193 32.4707 98.3748 32.5731C98.1303 32.6756 97.9107 32.8286 97.7307 33.0218C97.5507 33.215 97.4144 33.4441 97.331 33.6936C97.2476 33.9431 97.219 34.2073 97.2471 34.4686V37.2H96.4126V29.3599H97.2471V32.8995C97.4331 32.4883 97.7434 32.1443 98.1352 31.9151C98.527 31.6858 98.9811 31.5825 99.4347 31.6193C99.7256 31.5938 100.019 31.632 100.293 31.731C100.567 31.8301 100.816 31.9877 101.022 32.1926C101.228 32.3975 101.386 32.6447 101.484 32.9168C101.583 33.1888 101.62 33.4789 101.593 33.7666Z" fill="#E93631"/>
<path d="M114.478 30.4926L114.114 31.2831C113.5 30.8856 112.785 30.6688 112.052 30.6577C111.092 30.6577 110.46 31.0176 110.46 31.6429C110.46 33.5425 114.668 32.5514 114.633 35.2355C114.633 36.4744 113.536 37.2649 111.932 37.2649C110.869 37.2543 109.849 36.8502 109.071 36.1322L109.459 35.3712C110.124 36.0188 111.012 36.3938 111.944 36.4213C113.023 36.4213 113.697 35.9847 113.697 35.2768C113.697 33.3301 109.524 34.3683 109.524 31.7373C109.524 30.5575 110.561 29.826 112.105 29.826C112.95 29.8262 113.778 30.0657 114.49 30.5162" fill="#E93631"/>
<path d="M123.14 34.4156C123.145 34.9754 122.981 35.524 122.67 35.9918C122.36 36.4596 121.915 36.8255 121.394 37.043C120.873 37.2604 120.298 37.3198 119.743 37.2134C119.187 37.1071 118.676 36.8398 118.274 36.4456C117.873 36.0514 117.598 35.5479 117.486 34.9992C117.374 34.4504 117.429 33.881 117.645 33.3633C117.86 32.8456 118.226 32.4029 118.696 32.0913C119.166 31.7798 119.719 31.6135 120.285 31.6134C120.662 31.596 121.04 31.6564 121.392 31.7907C121.745 31.9251 122.066 32.1304 122.334 32.3939C122.603 32.6573 122.813 32.973 122.952 33.321C123.09 33.669 123.154 34.0417 123.14 34.4156ZM118.27 34.4156C118.282 34.8086 118.41 35.1895 118.64 35.5107C118.869 35.8318 119.189 36.0789 119.559 36.2211C119.93 36.3633 120.334 36.3942 120.722 36.31C121.111 36.2259 121.465 36.0303 121.741 35.7478C122.018 35.4654 122.204 35.1085 122.277 34.7219C122.349 34.3353 122.305 33.9361 122.15 33.5742C121.994 33.2123 121.734 32.9038 121.403 32.6873C121.071 32.4707 120.682 32.3558 120.285 32.3567C120.013 32.3506 119.743 32.4002 119.491 32.5024C119.24 32.6046 119.012 32.7571 118.823 32.9504C118.634 33.1438 118.487 33.3737 118.392 33.6258C118.297 33.878 118.255 34.1468 118.27 34.4156Z" fill="#E93631"/>
<path d="M127.202 29.3599H126.367V37.2H127.202V29.3599Z" fill="#E93631"/>
<path d="M135.865 37.2004H135.03V35.9439C134.856 36.353 134.556 36.6977 134.173 36.9294C133.79 37.1611 133.344 37.2683 132.896 37.2358C132.608 37.2545 132.319 37.2107 132.049 37.1073C131.78 37.004 131.536 36.8436 131.336 36.6374C131.135 36.4312 130.983 36.1841 130.889 35.9135C130.795 35.643 130.762 35.3553 130.792 35.0708V31.6315H131.627V34.8466C131.607 35.0538 131.635 35.2626 131.706 35.4583C131.777 35.6541 131.891 35.8319 132.039 35.9793C132.188 36.1267 132.367 36.2401 132.565 36.3114C132.762 36.3828 132.973 36.4103 133.182 36.3922C134.374 36.3922 135.03 35.5368 135.03 34.3511V31.6138H135.865V37.2004Z" fill="#E93631"/>
<path d="M142.508 36.8224C142.135 37.083 141.694 37.2306 141.238 37.2472C140.416 37.2472 139.808 36.7575 139.808 35.6603V32.4806H138.997V31.814H139.808V30.3451H140.63V31.814H142.419V32.4924H140.63V35.5246C140.63 36.203 140.899 36.4567 141.375 36.4567C141.697 36.4453 142.009 36.3452 142.275 36.1676L142.508 36.8224Z" fill="#E93631"/>
<path d="M146.422 30.0384C146.412 30.1417 146.371 30.2398 146.306 30.3209C146.24 30.4019 146.152 30.4624 146.053 30.495C145.953 30.5276 145.846 30.5309 145.745 30.5046C145.643 30.4783 145.552 30.4234 145.481 30.3466C145.411 30.2699 145.364 30.1745 145.347 30.072C145.33 29.9696 145.343 29.8645 145.386 29.7695C145.428 29.6745 145.497 29.5935 145.585 29.5366C145.672 29.4796 145.775 29.449 145.88 29.4485C145.955 29.449 146.03 29.4651 146.099 29.4956C146.168 29.5262 146.23 29.5705 146.281 29.626C146.332 29.6814 146.371 29.7466 146.395 29.8176C146.42 29.8886 146.429 29.9638 146.422 30.0384ZM145.474 31.6312H146.297V37.2001H145.474V31.6312Z" fill="#E93631"/>
<path d="M155.167 34.4156C155.171 34.974 155.007 35.5209 154.696 35.987C154.385 36.453 153.941 36.8172 153.421 37.0333C152.9 37.2495 152.327 37.3079 151.773 37.2011C151.219 37.0943 150.71 36.8271 150.31 36.4335C149.909 36.0398 149.636 35.5374 149.525 34.9899C149.413 34.4425 149.469 33.8746 149.684 33.3583C149.899 32.842 150.264 32.4006 150.733 32.0899C151.202 31.7793 151.754 31.6135 152.318 31.6135C152.695 31.596 153.072 31.6564 153.425 31.7907C153.777 31.9251 154.098 32.1306 154.365 32.3941C154.633 32.6577 154.843 32.9735 154.981 33.3214C155.119 33.6694 155.182 34.042 155.167 34.4156ZM150.303 34.4156C150.315 34.8086 150.443 35.1896 150.673 35.5107C150.902 35.8318 151.222 36.079 151.592 36.2211C151.963 36.3633 152.367 36.3942 152.756 36.3101C153.144 36.2259 153.498 36.0303 153.775 35.7479C154.051 35.4654 154.237 35.1085 154.31 34.7219C154.382 34.3353 154.338 33.9361 154.183 33.5742C154.027 33.2123 153.767 32.9038 153.436 32.6873C153.104 32.4707 152.715 32.3558 152.318 32.3568C152.046 32.3507 151.776 32.4003 151.524 32.5024C151.273 32.6046 151.045 32.7571 150.856 32.9505C150.667 33.1438 150.52 33.3737 150.425 33.6259C150.33 33.878 150.288 34.1469 150.303 34.4156Z" fill="#E93631"/>
<path d="M163.489 33.7673V37.2006H162.654V33.9915C162.674 33.7803 162.646 33.5676 162.573 33.3683C162.499 33.1691 162.383 32.9883 162.231 32.839C162.078 32.6896 161.895 32.5754 161.693 32.5043C161.491 32.4333 161.276 32.4073 161.063 32.4282C160.821 32.4203 160.58 32.46 160.354 32.5449C160.128 32.6298 159.921 32.7583 159.745 32.9229C159.569 33.0875 159.428 33.2849 159.33 33.5038C159.232 33.7226 159.179 33.9586 159.173 34.198V37.1829H158.345V31.6141H159.173V32.8529C159.367 32.4503 159.678 32.1149 160.068 31.8907C160.457 31.6665 160.906 31.5639 161.355 31.5964C161.646 31.5742 161.938 31.6154 162.21 31.7171C162.483 31.8188 162.73 31.9785 162.933 32.185C163.137 32.3915 163.292 32.6397 163.388 32.9121C163.484 33.1845 163.519 33.4744 163.489 33.7614" fill="#E93631"/>
<path d="M170.344 32.1092L170.022 32.764C169.564 32.4783 169.037 32.3213 168.496 32.3098C167.864 32.3098 167.387 32.5339 167.387 33.0472C167.387 34.286 170.522 33.6371 170.522 35.6487C170.522 36.746 169.545 37.2356 168.466 37.2356C167.673 37.251 166.903 36.971 166.308 36.451L166.63 35.8316C167.145 36.2815 167.808 36.531 168.496 36.5336C169.157 36.5336 169.688 36.2917 169.688 35.7431C169.724 34.404 166.57 35.0883 166.582 33.1121C166.582 32.0443 167.512 31.6019 168.537 31.6019C169.171 31.5945 169.792 31.7709 170.326 32.1092" fill="#E93631"/>
<path d="M181.157 29.8085C183.005 29.8085 184.072 30.717 184.072 32.2921C184.072 33.8672 183.005 34.8641 181.157 34.8641H179.208V37.2238H178.35V29.8085H181.157ZM179.208 34.056H181.127C182.474 34.056 183.255 33.466 183.255 32.2862C183.255 31.1064 182.474 30.599 181.127 30.599H179.208V34.056Z" fill="#E93631"/>
<path d="M188.347 37.2002L186.118 31.6372H187L188.794 36.3448L190.576 31.6372H191.423L189.211 37.2002H188.347Z" fill="#E93631"/>
<path d="M197.011 36.8224C196.639 37.0837 196.198 37.2313 195.742 37.2472C194.919 37.2472 194.311 36.7575 194.311 35.6603V32.4806H193.5V31.814H194.311V30.3451H195.134V31.814H196.922V32.4924H195.134V35.5246C195.134 36.203 195.402 36.4567 195.885 36.4567C196.204 36.4443 196.514 36.3442 196.779 36.1676L197.011 36.8224Z" fill="#E93631"/>
<path d="M200.543 36.7399C200.535 36.8395 200.497 36.9346 200.435 37.0135C200.373 37.0924 200.29 37.1517 200.194 37.1841C200.099 37.2165 199.996 37.2206 199.898 37.1959C199.8 37.1712 199.711 37.1188 199.643 37.0451C199.575 36.9713 199.53 36.8795 199.514 36.7809C199.498 36.6823 199.511 36.5811 199.552 36.4898C199.593 36.3985 199.66 36.3211 199.745 36.267C199.83 36.2129 199.929 36.1846 200.03 36.1854C200.101 36.1868 200.171 36.2025 200.236 36.2315C200.301 36.2605 200.359 36.3022 200.407 36.354C200.454 36.4059 200.491 36.4668 200.515 36.5331C200.538 36.5995 200.548 36.6698 200.543 36.7399Z" fill="#E93631"/>
<path d="M208.063 36.3983V37.2006H203.933V29.8029H204.791V36.3983H208.063Z" fill="#E93631"/>
<path d="M213.947 36.8224C213.574 37.083 213.133 37.2306 212.677 37.2472C211.855 37.2472 211.247 36.7575 211.247 35.6603V32.4806H210.436V31.814H211.271V30.3451H212.093V31.814H213.881V32.4924H212.093V35.5246C212.093 36.203 212.361 36.4567 212.844 36.4567C213.164 36.4443 213.473 36.3442 213.738 36.1676L213.947 36.8224Z" fill="#E93631"/>
<path d="M222 37.2004H221.165V36.0205C220.957 36.4114 220.641 36.7356 220.254 36.955C219.866 37.1744 219.424 37.28 218.978 37.2594C218.242 37.2261 217.548 36.9136 217.039 36.3867C216.531 35.8599 216.247 35.1593 216.247 34.4307C216.247 33.7021 216.531 33.0015 217.039 32.4746C217.548 31.9478 218.242 31.6353 218.978 31.602C219.425 31.5825 219.868 31.6898 220.256 31.9114C220.643 32.133 220.959 32.4596 221.165 32.8526V29.3721H222V37.2004ZM221.165 34.4336C221.154 34.0382 221.024 33.655 220.794 33.332C220.563 33.0089 220.241 32.7603 219.869 32.6172C219.496 32.4741 219.089 32.443 218.699 32.5276C218.308 32.6122 217.952 32.8089 217.674 33.093C217.395 33.3771 217.208 33.7361 217.135 34.125C217.062 34.5139 217.107 34.9155 217.263 35.2795C217.419 35.6436 217.681 35.9539 218.014 36.1718C218.348 36.3896 218.739 36.5053 219.139 36.5043C219.412 36.5095 219.683 36.459 219.936 36.3559C220.188 36.2528 220.417 36.0994 220.607 35.9052C220.797 35.7109 220.945 35.4801 221.041 35.2269C221.137 34.9737 221.179 34.7037 221.165 34.4336Z" fill="#E93631"/>
</svg>
