<svg width="62" height="62" viewBox="0 0 62 62" fill="none" xmlns="http://www.w3.org/2000/svg">
<path d="M53.5736 61.4695L44.1953 52.0835L42.4171 44.639L42.3925 44.536L42.3176 44.461L33.9091 36.0458L33.644 35.7805L33.3787 36.0456L26.9066 42.5147L26.7397 42.6816L26.8179 42.9043C28.5342 47.7895 27.3154 53.3266 23.6007 57.0376C20.9985 59.6372 17.4983 61.0134 13.9534 61.0136C12.0128 61.0136 10.0603 60.6013 8.2342 59.7521L6.25266 58.8307L12.6922 52.401L12.9579 52.1357L12.6922 51.8704L9.52651 48.708L9.26155 48.4433L8.99652 48.7079L2.55813 55.1365L1.63859 53.1629L1.29868 53.3213L1.63859 53.1629C-0.765654 48.0031 0.326703 41.83 4.35641 37.8043C8.07167 34.0929 13.6145 32.8761 18.5037 34.5935L18.7263 34.6717L18.8931 34.5049L21.4467 31.9525L21.7119 31.6875L21.4469 31.4222L2.67395 12.6351L2.67388 12.635C1.33729 11.2982 0.601241 9.52207 0.600278 7.63103C0.599315 5.73867 1.33467 3.96105 2.67255 2.62203C4.00897 1.28599 5.78292 0.551488 7.67217 0.551488H7.67218H7.6722H7.67222H7.67223H7.67225H7.67227H7.67228H7.6723H7.67232H7.67234H7.67235H7.67237H7.67239H7.6724H7.67242H7.67244H7.67245H7.67247H7.67249H7.67251H7.67252H7.67254H7.67256H7.67257H7.67259H7.67261H7.67262H7.67264H7.67266H7.67268H7.67269H7.67271H7.67273H7.67274H7.67276H7.67278H7.67279H7.67281H7.67283H7.67284H7.67286H7.67288H7.67289H7.67291H7.67293H7.67295H7.67296H7.67298H7.673H7.67301H7.67303H7.67305H7.67306H7.67308H7.6731H7.67311H7.67313H7.67315H7.67316H7.67318H7.6732H7.67321H7.67323H7.67325H7.67326H7.67328H7.6733H7.67331H7.67333H7.67335H7.67336H7.67338H7.6734H7.67341H7.67343H7.67345H7.67346H7.67348H7.6735H7.67351H7.67353H7.67355H7.67356H7.67358H7.6736H7.67361H7.67363H7.67365H7.67366H7.67368H7.6737H7.67371H7.67373H7.67375H7.67376H7.67378H7.6738H7.67381H7.67383H7.67385H7.67386H7.67388H7.6739H7.67391H7.67393H7.67395H7.67396H7.67398H7.674H7.67401H7.67403H7.67405H7.67406H7.67408H7.6741H7.67411H7.67413H7.67415H7.67416H7.67418H7.6742H7.67421H7.67423H7.67425H7.67426H7.67428H7.67429H7.67431H7.67433H7.67434H7.67436H7.67438H7.67439H7.67441H7.67443H7.67444H7.67446H7.67448H7.67449H7.67451H7.67453H7.67454H7.67456H7.67458H7.67459H7.67461H7.67462H7.67464H7.67466H7.67467H7.67469H7.67471H7.67472H7.67474H7.67476H7.67477H7.67479H7.67481H7.67482H7.67484H7.67485H7.67487H7.67489H7.6749H7.67492H7.67494H7.67495H7.67497H7.67499H7.675H7.67502H7.67504H7.67505H7.67507H7.67508H7.6751H7.67512H7.67513H7.67515H7.67517H7.67518H7.6752H7.67522H7.67523H7.67525H7.67526H7.67528H7.6753H7.67531H7.67533H7.67535H7.67536H7.67538H7.6754H7.67541H7.67543H7.67545H7.67546H7.67548H7.67549H7.67551H7.67553H7.67554H7.67556H7.67558H7.67559H7.67561H7.67563H7.67564H7.67566H7.67567H7.67569H7.67571H7.67572H7.67574H7.67576H7.67577H7.67579H7.67581H7.67582H7.67584H7.67585H7.67587H7.67589H7.6759H7.67592H7.67594H7.67595H7.67597H7.67598H7.676H7.67602H7.67603H7.67605H7.67607H7.67608H7.6761H7.67612H7.67613H7.67615H7.67616H7.67618H7.6762H7.67621H7.67623H7.67625H7.67626H7.67628H7.6763H7.67631H7.67633H7.67634H7.67636H7.67638H7.67639H7.67641H7.67643H7.67644H7.67646H7.67647H7.67649H7.67651H7.67652H7.67654H7.67656H7.67657H7.67659H7.67661H7.67662H7.67664H7.67665H7.67667H7.67669H7.6767H7.67672H7.67674H7.67675H7.67677H7.67678H7.6768H7.67682H7.67683H7.67685H7.67687H7.67688H7.6769H7.67692H7.67693H7.67695H7.67696H7.67698H7.677H7.67701H7.67703H7.67705H7.67706H7.67708H7.6771H7.67711H7.67713H7.67714H7.67716H7.67718H7.67719H7.67721H7.67723H7.67724H7.67726H7.67728H7.67729H7.67731H7.67732H7.67734H7.67736H7.67737H7.67739H7.67741H7.67742H7.67744H7.67746H7.67747H7.67749H7.67751H7.67752H7.67754H7.67755H7.67757H7.67759H7.6776H7.67762H7.67764H7.67765H7.67767H7.67769H7.6777H7.67772H7.67773H7.67775H7.67777H7.67778H7.6778H7.67782H7.67783H7.67785H7.67787H7.67788H7.6779H7.67791H7.67793H7.67795H7.67796H7.67798H7.678H7.67801H7.67803H7.67805H7.67806H7.67808H7.6781H7.67811H7.67813H7.67814H7.67816H7.67818H7.67819H7.67821H7.67823H7.67824H7.67826H7.67828H7.67829H7.67831H7.67833H7.67834H7.67836H7.67838H7.67839H7.67841H7.67843H7.67844H7.67846H7.67847H7.67849H7.67851H7.67852H7.67854H7.67856H7.67857H7.67859H7.67861H7.67862H7.67864H7.67866H7.67867H7.67869H7.67871H7.67872H7.67874H7.67876H7.67877H7.67879H7.67881H7.67882H7.67884H7.67886H7.67887H7.67889H7.67891H7.67892H7.67894H7.67895H7.67897H7.67899H7.679H7.67902H7.67904H7.67905H7.67907H7.67909H7.6791H7.67912H7.67914H7.67915H7.67917H7.67919H7.6792H7.67922H7.67924H7.67925H7.67927H7.67929H7.6793H7.67932H7.67934H7.67935H7.67937H7.67939H7.6794H7.67942H7.67944H7.67945H7.67947H7.67949H7.6795H7.67952H7.67954H7.67955H7.67957H7.67959H7.67961H7.67962H7.67964H7.67966H7.67967H7.67969H7.67971H7.67972H7.67974H7.67976H7.67977H7.67979H7.67981H7.67982H7.67984H7.67986H7.67987H7.67989H7.67991H7.67992H7.67994H7.67996H7.67998H7.67999H7.68001H7.68003H7.68004H7.68006H7.68008H7.68009H7.68011H7.68013H7.68014H7.68016H7.68018H7.68019H7.68021H7.68023H7.68025H7.68026H7.68028H7.6803H7.68031H7.68033H7.68035H7.68036H7.68038H7.6804H7.68042H7.68043C9.56992 0.55371 11.342 1.29083 12.6741 2.62841L12.6746 2.62887L31.4531 21.4207L31.7182 21.686L31.9834 21.4209L34.5315 18.8739L34.6984 18.7071L34.6202 18.4844C32.9039 13.5991 34.1227 8.06205 37.8372 4.35105C41.8654 0.327072 48.0418 -0.764082 53.2039 1.63654L55.1853 2.55807L48.7458 8.98763L48.4801 9.25293L48.7457 9.5183L51.9115 12.6808L52.1764 12.9455L52.4415 12.6809L58.88 6.25221L59.7995 8.22579L60.1005 8.08556L59.7995 8.22579C62.2036 13.3856 61.1114 19.5588 57.0816 23.5845C54.4794 26.1839 50.9791 27.5602 47.4345 27.5604C45.9197 27.5605 44.3981 27.3093 42.9344 26.7952L42.7118 26.717L42.545 26.8838L36.0681 33.3576L35.8029 33.6226L36.068 33.8879L44.4747 42.3013L44.5496 42.3763L44.6527 42.401L52.0912 44.1806L61.4699 53.5669L53.5736 61.4695ZM44.1605 9.2523L49.2429 4.17765L49.7705 3.65085L49.033 3.54135C45.7776 3.05799 42.3947 4.1131 39.9926 6.51267L40.2576 6.77798L39.9926 6.51268C36.8683 9.63396 36.0208 14.4172 37.8842 18.4174C37.8842 18.4175 37.8842 18.4175 37.8842 18.4175L38.3357 19.3871L34.141 23.5798L33.8758 23.8449L34.1409 24.1102L37.3043 27.2757L37.5694 27.541L37.8347 27.2759L42.0334 23.0792L42.9999 23.5287C47.0076 25.3927 51.7994 24.5465 54.9265 21.4226C57.3286 19.0229 58.3841 15.6421 57.8985 12.3905L57.7887 11.6552L57.2627 12.1805L52.1759 17.2595L44.1605 9.2523ZM4.82924 4.78205L4.82904 4.78224C4.06979 5.54224 3.6507 6.55478 3.65126 7.62938C3.65182 8.70348 4.07129 9.71525 4.83072 10.4749C4.83074 10.4749 4.83076 10.4749 4.83079 10.475L29.4568 35.1195L29.7219 35.3848L29.9872 35.1196L35.1452 29.9641L35.4104 29.699L35.1454 29.4338L10.5157 4.78669C10.5156 4.78662 10.5155 4.78655 10.5155 4.78648C9.75746 4.0256 8.74892 3.60664 7.67273 3.60538H7.67229C6.59864 3.60538 5.58798 4.02368 4.82924 4.78205ZM12.1952 57.211L11.6676 57.7378L12.4051 57.8473C15.6603 58.3307 19.0434 57.2756 21.4455 54.876L21.1805 54.6107L21.4455 54.876C24.5699 51.7546 25.4174 46.9715 23.5541 42.9712L23.1024 42.0014L27.2977 37.8081L27.5629 37.543L27.2979 37.2778L24.1346 34.1121L23.8695 33.8468L23.6042 34.1119L19.4047 38.3094L18.4382 37.8599C14.4306 35.996 9.6387 36.8423 6.51175 39.9661C4.10955 42.3659 3.05388 45.7467 3.53957 48.9982L3.64939 49.7334L4.17542 49.2082L9.26217 44.1292L17.2776 52.1365L12.1952 57.211ZM46.9375 50.431L46.9621 50.534L47.037 50.6089L53.3085 56.8854L53.5737 57.1509L53.839 56.8854L56.8901 53.8319L57.1549 53.5669L56.8901 53.3018L50.6187 47.0253L50.5438 46.9503L50.4407 46.9257L46.4311 45.9665L45.8373 45.8245L45.9791 46.4184L46.9375 50.431Z" fill="white" stroke="#171429" stroke-width="0.75"/>
</svg>
