<svg width="40" height="40" viewBox="0 0 40 40" fill="none" xmlns="http://www.w3.org/2000/svg">
<path d="M20 40C31.0457 40 40 31.0457 40 20C40 8.95431 31.0457 0 20 0C8.95431 0 0 8.95431 0 20C0 31.0457 8.95431 40 20 40Z" fill="white"/>
<path d="M32.2506 14.3733C31.3935 14.7534 30.4716 15.0104 29.5047 15.1252C30.4919 14.5337 31.2495 13.5979 31.6071 12.4809C30.6833 13.0289 29.6598 13.4264 28.5713 13.6407C27.6993 12.7119 26.4568 12.1315 25.081 12.1315C22.4413 12.1315 20.3004 14.2724 20.3004 16.9121C20.3004 17.2868 20.3429 17.6515 20.4249 18.0016C16.4518 17.8023 12.929 15.8992 10.571 13.0061C10.1596 13.712 9.92358 14.5337 9.92358 15.4097C9.92358 17.0679 10.7682 18.5317 12.0502 19.3888C11.2669 19.3642 10.5293 19.1492 9.88508 18.7902C9.88472 18.8105 9.88472 18.8309 9.88472 18.8508C9.88472 21.1671 11.5333 23.0991 13.7198 23.538C13.3191 23.6478 12.8959 23.7059 12.4606 23.7059C12.1518 23.7059 11.8527 23.6763 11.5611 23.6207C12.1693 25.5195 13.9344 26.9017 16.0268 26.9406C14.3904 28.223 12.3294 28.987 10.089 28.987C9.70397 28.987 9.32249 28.9646 8.94922 28.92C11.0637 30.2769 13.5772 31.068 16.2768 31.068C25.0699 31.068 29.8787 23.7836 29.8787 17.4657C29.8787 17.2586 29.874 17.0522 29.8648 16.8475C30.7996 16.1737 31.6099 15.332 32.2506 14.3733Z" fill="#23667B"/>
</svg>
